<svg xmlns="http://www.w3.org/2000/svg" xmlns:xlink="http://www.w3.org/1999/xlink" width="500" zoomAndPan="magnify" viewBox="0 0 375 374.999991" height="500" preserveAspectRatio="xMidYMid meet" version="1.0"><defs><g><g id="id1"/></g><clipPath id="id2"><path d="M 101.246094 112.746094 L 261.746094 112.746094 L 261.746094 243.996094 L 101.246094 243.996094 Z M 101.246094 112.746094 " clip-rule="nonzero"/></clipPath></defs><g clip-path="url(#id2)"><path fill="rgb(0%, 0%, 0%)" d="M 104.496094 112.746094 L 258.492188 112.746094 C 258.90625 112.746094 259.308594 112.828125 259.691406 112.984375 C 260.074219 113.144531 260.414062 113.371094 260.707031 113.664062 C 261 113.960938 261.226562 114.296875 261.382812 114.683594 C 261.542969 115.066406 261.621094 115.464844 261.621094 115.882812 L 261.621094 240.886719 C 261.621094 241.300781 261.542969 241.703125 261.382812 242.085938 C 261.226562 242.46875 261 242.808594 260.707031 243.105469 C 260.414062 243.398438 260.074219 243.625 259.691406 243.785156 C 259.308594 243.941406 258.90625 244.023438 258.492188 244.023438 L 104.496094 244.023438 C 104.082031 244.023438 103.683594 243.941406 103.300781 243.785156 C 102.914062 243.625 102.578125 243.398438 102.285156 243.105469 C 101.988281 242.808594 101.765625 242.46875 101.605469 242.085938 C 101.445312 241.703125 101.367188 241.300781 101.367188 240.886719 L 101.367188 115.882812 C 101.367188 115.464844 101.445312 115.066406 101.605469 114.683594 C 101.765625 114.296875 101.988281 113.960938 102.285156 113.664062 C 102.578125 113.371094 102.914062 113.144531 103.300781 112.984375 C 103.683594 112.828125 104.082031 112.746094 104.496094 112.746094 Z M 104.496094 112.746094 " fill-opacity="1" fill-rule="nonzero"/></g><path fill="rgb(100%, 100%, 100%)" d="M 119.046875 126.402344 C 118.511719 125.863281 117.863281 125.597656 117.105469 125.597656 C 116.347656 125.597656 115.699219 125.867188 115.160156 126.410156 C 114.625 126.941406 114.355469 127.59375 114.355469 128.351562 C 114.355469 129.109375 114.625 129.761719 115.160156 130.292969 L 123.574219 138.722656 L 115.167969 147.144531 C 114.625 147.6875 114.355469 148.335938 114.347656 149.09375 C 114.355469 149.855469 114.625 150.503906 115.160156 151.039062 C 115.699219 151.574219 116.347656 151.84375 117.097656 151.851562 C 117.863281 151.851562 118.511719 151.582031 119.054688 151.039062 L 128.402344 141.664062 C 130.367188 139.707031 130.367188 137.742188 128.402344 135.773438 Z M 155.695312 147.160156 C 155.152344 146.617188 154.496094 146.347656 153.730469 146.347656 L 153.730469 146.34375 L 135.683594 146.34375 L 135.683594 146.347656 C 134.917969 146.347656 134.269531 146.617188 133.726562 147.160156 C 133.1875 147.703125 132.914062 148.351562 132.914062 149.117188 C 132.914062 149.886719 133.1875 150.542969 133.726562 151.085938 C 134.269531 151.625 134.917969 151.898438 135.683594 151.898438 L 135.683594 151.894531 L 153.730469 151.894531 L 153.730469 151.898438 C 154.496094 151.898438 155.152344 151.625 155.695312 151.085938 C 156.234375 150.542969 156.507812 149.886719 156.507812 149.117188 C 156.507812 148.351562 156.234375 147.703125 155.695312 147.160156 Z M 155.695312 147.160156 " fill-opacity="1" fill-rule="nonzero"/><g fill="rgb(100%, 100%, 100%)" fill-opacity="1"><g transform="translate(117.209425, 183.849994)"><g><path d="M 27.3125 -3.421875 C 27.15625 -3.234375 26.976562 -3.046875 26.78125 -2.859375 C 26.59375 -2.671875 26.457031 -2.535156 26.375 -2.453125 C 26.082031 -2.203125 25.796875 -1.957031 25.515625 -1.71875 C 24.828125 -1.113281 24.117188 -0.519531 23.390625 0.0625 C 21.773438 1.332031 20.09375 2.519531 18.34375 3.625 C 15.5625 5.351562 12.539062 6.398438 9.28125 6.765625 C 8.03125 6.921875 6.773438 6.898438 5.515625 6.703125 C 3.890625 6.378906 2.648438 5.785156 1.796875 4.921875 C 0.953125 4.054688 0.441406 3.03125 0.265625 1.84375 C 0.0859375 0.65625 0.195312 -0.566406 0.59375 -1.828125 C 1 -3.097656 1.640625 -4.285156 2.515625 -5.390625 C 3.597656 -6.742188 4.941406 -7.90625 6.546875 -8.875 C 8.148438 -9.851562 9.90625 -10.613281 11.8125 -11.15625 C 12.238281 -11.269531 12.5 -11.367188 12.59375 -11.453125 C 12.695312 -11.535156 12.6875 -11.613281 12.5625 -11.6875 C 12.445312 -11.769531 12.269531 -11.847656 12.03125 -11.921875 C 11.789062 -12.015625 11.539062 -12.125 11.28125 -12.25 C 10.925781 -12.425781 10.585938 -12.632812 10.265625 -12.875 C 9.421875 -13.5 8.929688 -14.203125 8.796875 -14.984375 C 8.660156 -15.773438 8.882812 -16.609375 9.46875 -17.484375 C 9.53125 -17.554688 9.585938 -17.632812 9.640625 -17.71875 C 9.703125 -17.800781 9.757812 -17.878906 9.8125 -17.953125 C 9.863281 -18.023438 9.875 -18.085938 9.84375 -18.140625 C 9.820312 -18.203125 9.785156 -18.25 9.734375 -18.28125 C 9.546875 -18.382812 9.363281 -18.476562 9.1875 -18.5625 C 9.09375 -18.601562 9.003906 -18.648438 8.921875 -18.703125 C 8.078125 -19.097656 7.289062 -19.59375 6.5625 -20.1875 C 6.414062 -20.3125 6.273438 -20.445312 6.140625 -20.59375 C 6.003906 -20.738281 5.890625 -20.90625 5.796875 -21.09375 C 5.734375 -21.207031 5.726562 -21.316406 5.78125 -21.421875 C 5.832031 -21.523438 5.914062 -21.597656 6.03125 -21.640625 C 6.195312 -21.691406 6.347656 -21.707031 6.484375 -21.6875 C 6.628906 -21.664062 6.753906 -21.59375 6.859375 -21.46875 C 7.066406 -21.1875 7.421875 -20.851562 7.921875 -20.46875 C 8.421875 -20.082031 8.941406 -19.726562 9.484375 -19.40625 C 10.023438 -19.09375 10.460938 -18.925781 10.796875 -18.90625 C 10.984375 -18.894531 11.175781 -18.9375 11.375 -19.03125 C 12.050781 -19.34375 12.828125 -19.582031 13.703125 -19.75 C 14.585938 -19.925781 15.472656 -20 16.359375 -19.96875 C 17.242188 -19.9375 18.039062 -19.769531 18.75 -19.46875 C 19.132812 -19.320312 19.453125 -19.082031 19.703125 -18.75 C 20.023438 -18.269531 19.96875 -17.828125 19.53125 -17.421875 C 19.1875 -17.160156 18.796875 -16.988281 18.359375 -16.90625 C 17.796875 -16.78125 17.234375 -16.71875 16.671875 -16.71875 C 16.109375 -16.71875 15.546875 -16.75 14.984375 -16.8125 C 13.859375 -16.925781 12.757812 -17.164062 11.6875 -17.53125 C 11.4375 -17.625 11.253906 -17.648438 11.140625 -17.609375 C 11.023438 -17.578125 10.898438 -17.457031 10.765625 -17.25 C 10.585938 -17.007812 10.4375 -16.753906 10.3125 -16.484375 C 9.851562 -15.441406 10.046875 -14.535156 10.890625 -13.765625 C 11.285156 -13.398438 11.789062 -13.0625 12.40625 -12.75 C 13.019531 -12.445312 13.65625 -12.222656 14.3125 -12.078125 C 14.976562 -11.941406 15.585938 -11.925781 16.140625 -12.03125 C 16.441406 -12.113281 16.734375 -12.097656 17.015625 -11.984375 C 17.148438 -11.921875 17.21875 -11.816406 17.21875 -11.671875 C 17.21875 -11.503906 17.148438 -11.40625 17.015625 -11.375 C 16.734375 -11.300781 16.441406 -11.242188 16.140625 -11.203125 C 14.847656 -11.046875 13.488281 -10.742188 12.0625 -10.296875 C 10.644531 -9.847656 9.269531 -9.257812 7.9375 -8.53125 C 6.613281 -7.800781 5.441406 -6.925781 4.421875 -5.90625 C 3.410156 -4.894531 2.664062 -3.738281 2.1875 -2.4375 C 1.707031 -1.144531 1.609375 0.296875 1.890625 1.890625 C 2.128906 3.066406 2.582031 3.960938 3.25 4.578125 C 3.925781 5.203125 4.726562 5.613281 5.65625 5.8125 C 6.582031 6.007812 7.550781 6.070312 8.5625 6 C 9.582031 5.925781 10.550781 5.773438 11.46875 5.546875 C 12.613281 5.253906 13.710938 4.867188 14.765625 4.390625 C 15.816406 3.921875 16.835938 3.375 17.828125 2.75 C 19.046875 1.96875 20.234375 1.140625 21.390625 0.265625 C 22.546875 -0.609375 23.691406 -1.5 24.828125 -2.40625 C 24.867188 -2.4375 24.953125 -2.515625 25.078125 -2.640625 C 25.210938 -2.765625 25.375 -2.910156 25.5625 -3.078125 C 26.476562 -3.804688 27.039062 -4.125 27.25 -4.03125 C 27.375 -4 27.453125 -3.929688 27.484375 -3.828125 C 27.515625 -3.722656 27.457031 -3.585938 27.3125 -3.421875 Z M 13.421875 -18.890625 C 13.378906 -18.878906 13.28125 -18.847656 13.125 -18.796875 C 12.976562 -18.742188 12.832031 -18.675781 12.6875 -18.59375 C 12.539062 -18.519531 12.441406 -18.445312 12.390625 -18.375 C 12.335938 -18.300781 12.390625 -18.238281 12.546875 -18.1875 C 14.097656 -17.632812 15.6875 -17.414062 17.3125 -17.53125 C 18.019531 -17.613281 18.421875 -17.769531 18.515625 -18 C 18.617188 -18.226562 18.503906 -18.453125 18.171875 -18.671875 C 17.847656 -18.890625 17.410156 -19.039062 16.859375 -19.125 C 16.390625 -19.175781 15.84375 -19.1875 15.21875 -19.15625 C 14.59375 -19.125 13.992188 -19.035156 13.421875 -18.890625 Z M 13.421875 -18.890625 "/></g></g></g><g fill="rgb(100%, 100%, 100%)" fill-opacity="1"><g transform="translate(143.929467, 183.849994)"><g><path d="M 10.828125 -3.953125 C 10.929688 -3.960938 11.015625 -3.945312 11.078125 -3.90625 C 11.140625 -3.863281 11.171875 -3.785156 11.171875 -3.671875 C 11.191406 -3.617188 11.171875 -3.535156 11.109375 -3.421875 C 11.046875 -3.316406 10.972656 -3.210938 10.890625 -3.109375 C 10.816406 -3.003906 10.757812 -2.929688 10.71875 -2.890625 C 10.332031 -2.484375 9.910156 -2.21875 9.453125 -2.09375 C 8.992188 -1.96875 8.503906 -1.953125 7.984375 -2.046875 C 7.722656 -2.085938 7.5 -2.1875 7.3125 -2.34375 C 7.125 -2.507812 6.960938 -2.707031 6.828125 -2.9375 C 6.816406 -2.945312 6.804688 -2.957031 6.796875 -2.96875 C 6.628906 -3.226562 6.453125 -3.488281 6.265625 -3.75 C 6.171875 -3.875 6.078125 -3.9375 5.984375 -3.9375 C 5.898438 -3.9375 5.800781 -3.878906 5.6875 -3.765625 C 5.34375 -3.441406 5.046875 -3.078125 4.796875 -2.671875 C 4.554688 -2.316406 4.210938 -2.160156 3.765625 -2.203125 C 3.429688 -2.222656 3.210938 -2.394531 3.109375 -2.71875 C 3.085938 -2.789062 3.078125 -2.867188 3.078125 -2.953125 C 3.054688 -3.367188 2.96875 -3.488281 2.8125 -3.3125 C 2.65625 -3.144531 2.503906 -2.910156 2.359375 -2.609375 C 2.296875 -2.492188 2.226562 -2.378906 2.15625 -2.265625 C 2.070312 -2.128906 1.988281 -1.992188 1.90625 -1.859375 C 1.832031 -1.703125 1.75 -1.550781 1.65625 -1.40625 C 1.488281 -1.175781 1.265625 -1.050781 0.984375 -1.03125 C 0.453125 -0.976562 0.15625 -1.207031 0.09375 -1.71875 C 0.0703125 -2.15625 0.0507812 -2.585938 0.03125 -3.015625 C 0.0195312 -3.210938 0.0078125 -3.414062 0 -3.625 C -0.0078125 -3.789062 -0.015625 -3.96875 -0.015625 -4.15625 C -0.046875 -4.476562 -0.0664062 -4.796875 -0.078125 -5.109375 C -0.0859375 -5.515625 0.101562 -5.734375 0.5 -5.765625 C 0.925781 -5.804688 1.171875 -5.632812 1.234375 -5.25 C 1.285156 -4.90625 1.320312 -4.5625 1.34375 -4.21875 C 1.34375 -3.988281 1.367188 -3.847656 1.421875 -3.796875 C 1.472656 -3.753906 1.519531 -3.742188 1.5625 -3.765625 C 1.613281 -3.796875 1.660156 -3.84375 1.703125 -3.90625 C 1.703125 -3.90625 1.703125 -3.910156 1.703125 -3.921875 C 1.753906 -3.972656 1.800781 -4.03125 1.84375 -4.09375 C 1.957031 -4.25 2.078125 -4.394531 2.203125 -4.53125 C 2.546875 -4.832031 2.945312 -4.957031 3.40625 -4.90625 C 3.8125 -4.875 4.097656 -4.679688 4.265625 -4.328125 C 4.328125 -4.203125 4.421875 -4.1875 4.546875 -4.28125 C 4.671875 -4.375 4.835938 -4.484375 5.046875 -4.609375 C 5.253906 -4.734375 5.488281 -4.816406 5.75 -4.859375 C 6.351562 -4.984375 6.867188 -4.828125 7.296875 -4.390625 C 7.484375 -4.179688 7.671875 -3.945312 7.859375 -3.6875 C 7.867188 -3.664062 7.882812 -3.644531 7.90625 -3.625 C 7.957031 -3.550781 8.003906 -3.476562 8.046875 -3.40625 C 8.078125 -3.332031 8.117188 -3.257812 8.171875 -3.1875 C 8.359375 -2.9375 8.554688 -2.804688 8.765625 -2.796875 C 8.984375 -2.796875 9.195312 -2.863281 9.40625 -3 C 9.625 -3.144531 9.832031 -3.300781 10.03125 -3.46875 C 10.1875 -3.601562 10.328125 -3.71875 10.453125 -3.8125 C 10.585938 -3.90625 10.710938 -3.953125 10.828125 -3.953125 Z M 10.828125 -3.953125 "/></g></g></g><g fill="rgb(100%, 100%, 100%)" fill-opacity="1"><g transform="translate(154.239448, 183.849994)"><g><path d="M 7.15625 -3.9375 C 7.21875 -3.925781 7.257812 -3.90625 7.28125 -3.875 C 7.300781 -3.851562 7.320312 -3.8125 7.34375 -3.75 C 7.363281 -3.675781 7.335938 -3.59375 7.265625 -3.5 C 7.203125 -3.40625 7.144531 -3.332031 7.09375 -3.28125 C 6.664062 -2.875 6.164062 -2.632812 5.59375 -2.5625 C 5.257812 -2.507812 4.925781 -2.492188 4.59375 -2.515625 C 4.269531 -2.546875 3.953125 -2.628906 3.640625 -2.765625 C 3.410156 -2.878906 3.195312 -2.84375 3 -2.65625 C 2.582031 -2.28125 2.148438 -1.921875 1.703125 -1.578125 C 1.472656 -1.410156 1.234375 -1.269531 0.984375 -1.15625 C 0.734375 -1.039062 0.457031 -0.972656 0.15625 -0.953125 C -0.71875 -0.972656 -1.0625 -1.398438 -0.875 -2.234375 C -0.863281 -2.265625 -0.851562 -2.289062 -0.84375 -2.3125 C -0.59375 -2.988281 -0.257812 -3.597656 0.15625 -4.140625 C 0.570312 -4.691406 1.09375 -5.148438 1.71875 -5.515625 C 2.132812 -5.753906 2.582031 -5.847656 3.0625 -5.796875 C 3.1875 -5.765625 3.304688 -5.71875 3.421875 -5.65625 C 3.566406 -5.582031 3.625 -5.472656 3.59375 -5.328125 C 3.582031 -5.273438 3.5625 -5.234375 3.53125 -5.203125 C 3.5 -5.171875 3.460938 -5.140625 3.421875 -5.109375 C 3.398438 -5.078125 3.375 -5.054688 3.34375 -5.046875 C 3.3125 -5.035156 3.273438 -5.03125 3.234375 -5.03125 C 2.890625 -5.019531 2.59375 -4.921875 2.34375 -4.734375 C 2.101562 -4.546875 1.878906 -4.332031 1.671875 -4.09375 C 1.441406 -3.832031 1.226562 -3.546875 1.03125 -3.234375 C 0.84375 -2.929688 0.6875 -2.566406 0.5625 -2.140625 C 1.019531 -2.410156 1.378906 -2.675781 1.640625 -2.9375 C 1.691406 -2.988281 1.75 -3.039062 1.8125 -3.09375 C 1.851562 -3.132812 1.898438 -3.175781 1.953125 -3.21875 C 2.179688 -3.425781 2.421875 -3.613281 2.671875 -3.78125 C 2.953125 -3.9375 3.234375 -4.015625 3.515625 -4.015625 C 3.796875 -4.015625 4.070312 -3.898438 4.34375 -3.671875 C 4.707031 -3.347656 5.0625 -3.222656 5.40625 -3.296875 C 5.75 -3.367188 6.066406 -3.488281 6.359375 -3.65625 C 6.660156 -3.84375 6.925781 -3.9375 7.15625 -3.9375 Z M 7.15625 -3.9375 "/></g></g></g><g fill="rgb(100%, 100%, 100%)" fill-opacity="1"><g transform="translate(160.855025, 183.849994)"><g><path d="M 10.3125 -3.671875 C 10.3125 -3.671875 10.316406 -3.671875 10.328125 -3.671875 C 10.390625 -3.660156 10.445312 -3.640625 10.5 -3.609375 C 10.5625 -3.585938 10.597656 -3.535156 10.609375 -3.453125 C 10.640625 -3.304688 10.597656 -3.191406 10.484375 -3.109375 C 10.015625 -2.773438 9.515625 -2.515625 8.984375 -2.328125 C 8.492188 -2.171875 8.003906 -2.070312 7.515625 -2.03125 C 7.023438 -1.988281 6.523438 -1.992188 6.015625 -2.046875 C 5.367188 -2.109375 4.84375 -2.414062 4.4375 -2.96875 C 4.3125 -3.144531 4.1875 -3.316406 4.0625 -3.484375 C 3.9375 -3.660156 3.804688 -3.835938 3.671875 -4.015625 C 3.554688 -4.171875 3.410156 -4.191406 3.234375 -4.078125 C 3.023438 -3.921875 2.835938 -3.75 2.671875 -3.5625 C 2.503906 -3.375 2.347656 -3.175781 2.203125 -2.96875 C 2.191406 -2.945312 2.179688 -2.925781 2.171875 -2.90625 C 2.109375 -2.832031 2.050781 -2.753906 2 -2.671875 C 1.925781 -2.546875 1.847656 -2.429688 1.765625 -2.328125 C 1.609375 -2.160156 1.410156 -2.050781 1.171875 -2 C 0.929688 -1.945312 0.703125 -1.96875 0.484375 -2.0625 C 0.328125 -2.144531 0.222656 -2.265625 0.171875 -2.421875 C 0.0234375 -3.003906 -0.0664062 -3.59375 -0.109375 -4.1875 C -0.109375 -4.507812 0.0390625 -4.703125 0.34375 -4.765625 C 0.6875 -4.835938 0.9375 -4.726562 1.09375 -4.4375 C 1.113281 -4.382812 1.128906 -4.328125 1.140625 -4.265625 C 1.148438 -4.191406 1.171875 -4.125 1.203125 -4.0625 C 1.234375 -4 1.285156 -3.945312 1.359375 -3.90625 C 1.453125 -3.976562 1.539062 -4.050781 1.625 -4.125 C 1.800781 -4.28125 1.976562 -4.4375 2.15625 -4.59375 C 2.363281 -4.757812 2.582031 -4.878906 2.8125 -4.953125 C 3.039062 -5.023438 3.285156 -5.0625 3.546875 -5.0625 C 4.148438 -5.0625 4.628906 -4.820312 4.984375 -4.34375 C 5.054688 -4.238281 5.128906 -4.140625 5.203125 -4.046875 C 5.359375 -3.804688 5.519531 -3.578125 5.6875 -3.359375 C 5.96875 -3.003906 6.335938 -2.820312 6.796875 -2.8125 C 7.265625 -2.789062 7.710938 -2.832031 8.140625 -2.9375 C 8.566406 -3.050781 8.984375 -3.21875 9.390625 -3.4375 C 9.398438 -3.445312 9.414062 -3.457031 9.4375 -3.46875 C 9.570312 -3.550781 9.710938 -3.613281 9.859375 -3.65625 C 10.003906 -3.707031 10.15625 -3.710938 10.3125 -3.671875 Z M 10.3125 -3.671875 "/></g></g></g><g fill="rgb(100%, 100%, 100%)" fill-opacity="1"><g transform="translate(170.493296, 183.849994)"><g><path d="M 9.796875 -3.953125 C 9.867188 -3.941406 9.914062 -3.914062 9.9375 -3.875 C 9.96875 -3.84375 9.988281 -3.796875 10 -3.734375 C 10 -3.554688 9.84375 -3.351562 9.53125 -3.125 C 9.21875 -2.90625 8.875 -2.703125 8.5 -2.515625 C 8.125 -2.328125 7.859375 -2.207031 7.703125 -2.15625 C 7.171875 -1.957031 6.648438 -1.890625 6.140625 -1.953125 C 5.640625 -2.015625 5.195312 -2.28125 4.8125 -2.75 C 4.570312 -3.082031 4.390625 -3.234375 4.265625 -3.203125 C 4.148438 -3.171875 4.007812 -3.023438 3.84375 -2.765625 C 3.65625 -2.460938 3.347656 -2.109375 2.921875 -1.703125 C 2.441406 -1.347656 1.992188 -1.179688 1.578125 -1.203125 C 1.160156 -1.222656 0.804688 -1.382812 0.515625 -1.6875 C 0.234375 -1.988281 0.0507812 -2.378906 -0.03125 -2.859375 C -0.125 -3.335938 -0.078125 -3.84375 0.109375 -4.375 C 0.253906 -4.800781 0.566406 -4.976562 1.046875 -4.90625 C 1.171875 -4.882812 1.269531 -4.832031 1.34375 -4.75 C 1.425781 -4.664062 1.445312 -4.5625 1.40625 -4.4375 C 1.3125 -4.007812 1.273438 -3.582031 1.296875 -3.15625 C 1.285156 -2.882812 1.335938 -2.628906 1.453125 -2.390625 C 1.566406 -2.179688 1.722656 -2.144531 1.921875 -2.28125 C 2.117188 -2.414062 2.316406 -2.613281 2.515625 -2.875 C 2.722656 -3.144531 2.882812 -3.363281 3 -3.53125 C 3.019531 -3.582031 3.039062 -3.625 3.0625 -3.65625 C 3.101562 -3.71875 3.148438 -3.78125 3.203125 -3.84375 C 3.335938 -4.0625 3.484375 -4.269531 3.640625 -4.46875 C 3.921875 -4.789062 4.273438 -4.925781 4.703125 -4.875 C 5.066406 -4.851562 5.320312 -4.671875 5.46875 -4.328125 C 5.769531 -3.566406 6.207031 -3.148438 6.78125 -3.078125 C 7.363281 -3.003906 7.992188 -3.1875 8.671875 -3.625 C 8.835938 -3.75 9.007812 -3.84375 9.1875 -3.90625 C 9.375 -3.976562 9.578125 -3.992188 9.796875 -3.953125 Z M 9.796875 -3.953125 "/></g></g></g><g fill="rgb(100%, 100%, 100%)" fill-opacity="1"><g transform="translate(179.405188, 183.849994)"><g><path d="M 1.671875 -3.0625 C 1.660156 -3.0625 1.648438 -3.0625 1.640625 -3.0625 C 1.640625 -3.0625 1.644531 -3.0625 1.65625 -3.0625 C 1.65625 -3.0625 1.660156 -3.0625 1.671875 -3.0625 Z M 7.140625 -3.84375 C 7.191406 -3.882812 7.28125 -3.925781 7.40625 -3.96875 C 7.53125 -4.019531 7.648438 -4.050781 7.765625 -4.0625 C 7.878906 -4.070312 7.960938 -4.03125 8.015625 -3.9375 C 8.046875 -3.863281 8.050781 -3.796875 8.03125 -3.734375 C 8.019531 -3.671875 7.988281 -3.617188 7.9375 -3.578125 C 7.65625 -3.265625 7.210938 -2.945312 6.609375 -2.625 C 6.003906 -2.300781 5.378906 -2.015625 4.734375 -1.765625 C 4.085938 -1.523438 3.550781 -1.367188 3.125 -1.296875 C 2.632812 -1.210938 2.140625 -1.191406 1.640625 -1.234375 C 1.015625 -1.316406 0.550781 -1.570312 0.25 -2 C -0.0507812 -2.4375 -0.175781 -2.925781 -0.125 -3.46875 C -0.03125 -4.070312 0.242188 -4.550781 0.703125 -4.90625 C 1.171875 -5.269531 1.707031 -5.40625 2.3125 -5.3125 C 2.675781 -5.257812 3.003906 -5.125 3.296875 -4.90625 C 3.617188 -4.644531 3.765625 -4.34375 3.734375 -4 C 3.703125 -3.664062 3.5 -3.410156 3.125 -3.234375 C 2.9375 -3.140625 2.722656 -3.078125 2.484375 -3.046875 C 2.253906 -3.023438 1.984375 -3.03125 1.671875 -3.0625 C 1.671875 -3.0625 1.660156 -3.0625 1.640625 -3.0625 C 1.628906 -3.0625 1.601562 -3.0625 1.5625 -3.0625 C 1.53125 -3.0625 1.5 -3.0625 1.46875 -3.0625 C 1.375 -3.0625 1.3125 -3.035156 1.28125 -2.984375 C 1.25 -2.929688 1.25 -2.863281 1.28125 -2.78125 C 1.445312 -2.351562 1.78125 -2.128906 2.28125 -2.109375 C 2.789062 -2.085938 3.363281 -2.179688 4 -2.390625 C 4.632812 -2.609375 5.238281 -2.859375 5.8125 -3.140625 C 6.382812 -3.421875 6.828125 -3.65625 7.140625 -3.84375 Z M 1.65625 -4.34375 C 1.570312 -4.289062 1.515625 -4.222656 1.484375 -4.140625 C 1.460938 -4.066406 1.445312 -4.003906 1.4375 -3.953125 C 1.4375 -3.898438 1.445312 -3.867188 1.46875 -3.859375 C 1.488281 -3.847656 1.550781 -3.832031 1.65625 -3.8125 C 1.769531 -3.800781 1.890625 -3.800781 2.015625 -3.8125 C 2.148438 -3.820312 2.257812 -3.847656 2.34375 -3.890625 C 2.4375 -3.941406 2.46875 -4.023438 2.4375 -4.140625 C 2.382812 -4.296875 2.273438 -4.394531 2.109375 -4.4375 C 1.941406 -4.476562 1.789062 -4.445312 1.65625 -4.34375 Z M 1.65625 -4.34375 "/></g></g></g><g fill="rgb(100%, 100%, 100%)" fill-opacity="1"><g transform="translate(186.622175, 183.849994)"><g><path d="M 6.640625 -3.765625 C 6.867188 -3.984375 7.054688 -4.023438 7.203125 -3.890625 C 7.359375 -3.753906 7.359375 -3.503906 7.203125 -3.140625 C 6.847656 -2.441406 6.390625 -1.785156 5.828125 -1.171875 C 5.265625 -0.566406 4.628906 -0.117188 3.921875 0.171875 C 3.609375 0.265625 3.296875 0.3125 2.984375 0.3125 C 2.671875 0.3125 2.359375 0.273438 2.046875 0.203125 C 1.742188 0.128906 1.492188 0 1.296875 -0.1875 C 1.097656 -0.382812 0.925781 -0.609375 0.78125 -0.859375 C 0.34375 -1.679688 0.0625 -2.867188 -0.0625 -4.421875 C -0.1875 -5.972656 -0.195312 -7.664062 -0.09375 -9.5 C 0 -11.34375 0.148438 -13.109375 0.359375 -14.796875 C 0.566406 -16.484375 0.78125 -17.875 1 -18.96875 C 1.101562 -19.425781 1.257812 -19.863281 1.46875 -20.28125 C 1.695312 -20.707031 2.050781 -20.898438 2.53125 -20.859375 C 2.976562 -20.859375 3.285156 -20.648438 3.453125 -20.234375 C 3.640625 -19.691406 3.742188 -19.140625 3.765625 -18.578125 C 3.859375 -17.242188 3.820312 -15.921875 3.65625 -14.609375 C 3.5 -13.335938 3.300781 -12.144531 3.0625 -11.03125 C 2.820312 -9.925781 2.570312 -8.84375 2.3125 -7.78125 C 1.976562 -6.488281 1.660156 -5.128906 1.359375 -3.703125 C 1.367188 -3.554688 1.382812 -3.425781 1.40625 -3.3125 C 1.445312 -2.914062 1.503906 -2.570312 1.578125 -2.28125 C 1.648438 -1.988281 1.804688 -1.628906 2.046875 -1.203125 C 2.273438 -0.796875 2.5625 -0.582031 2.90625 -0.5625 C 3.257812 -0.539062 3.617188 -0.640625 3.984375 -0.859375 C 4.359375 -1.078125 4.695312 -1.335938 5 -1.640625 C 5.3125 -1.941406 5.550781 -2.21875 5.71875 -2.46875 C 5.769531 -2.539062 5.859375 -2.664062 5.984375 -2.84375 C 6.109375 -3.03125 6.234375 -3.210938 6.359375 -3.390625 C 6.484375 -3.566406 6.578125 -3.691406 6.640625 -3.765625 Z M 1.203125 -7.90625 C 1.347656 -8.28125 1.492188 -8.890625 1.640625 -9.734375 C 1.796875 -10.578125 1.929688 -11.515625 2.046875 -12.546875 C 2.171875 -13.578125 2.265625 -14.554688 2.328125 -15.484375 C 2.390625 -16.421875 2.410156 -17.171875 2.390625 -17.734375 C 2.378906 -18.296875 2.3125 -18.53125 2.1875 -18.4375 C 2 -17.644531 1.878906 -16.910156 1.828125 -16.234375 C 1.785156 -15.878906 1.734375 -15.351562 1.671875 -14.65625 C 1.535156 -13.445312 1.410156 -12.15625 1.296875 -10.78125 C 1.179688 -9.414062 1.148438 -8.457031 1.203125 -7.90625 Z M 1.203125 -7.90625 "/></g></g></g><g fill="rgb(100%, 100%, 100%)" fill-opacity="1"><g transform="translate(193.144025, 183.849994)"><g/></g></g><g fill="rgb(100%, 100%, 100%)" fill-opacity="1"><g transform="translate(199.322209, 183.849994)"><g><path d="M 1.84375 -3.140625 C 1.800781 -3.191406 1.765625 -3.050781 1.734375 -2.71875 C 1.703125 -2.382812 1.6875 -1.945312 1.6875 -1.40625 C 1.6875 -0.875 1.691406 -0.332031 1.703125 0.21875 C 1.722656 0.769531 1.753906 1.226562 1.796875 1.59375 C 1.847656 1.957031 1.910156 2.140625 1.984375 2.140625 C 2.023438 2.054688 2.046875 1.769531 2.046875 1.28125 C 2.054688 0.800781 2.050781 0.242188 2.03125 -0.390625 C 2.019531 -1.023438 1.992188 -1.601562 1.953125 -2.125 C 1.921875 -2.65625 1.882812 -2.992188 1.84375 -3.140625 Z M 3.359375 -2.1875 C 3.335938 -1.707031 3.3125 -1.226562 3.28125 -0.75 C 3.25 0.0625 3.210938 0.875 3.171875 1.6875 C 3.109375 2.65625 3.03125 3.617188 2.9375 4.578125 C 2.90625 4.847656 2.847656 5.109375 2.765625 5.359375 C 2.648438 5.773438 2.394531 5.984375 2 5.984375 C 1.570312 6.003906 1.300781 5.804688 1.1875 5.390625 C 1.09375 4.960938 1.023438 4.53125 0.984375 4.09375 C 0.742188 1.488281 0.609375 -1.128906 0.578125 -3.765625 C 0.554688 -4.628906 0.554688 -5.492188 0.578125 -6.359375 C 0.585938 -6.765625 0.800781 -6.953125 1.21875 -6.921875 C 1.539062 -6.910156 1.707031 -6.742188 1.71875 -6.421875 C 1.726562 -6.066406 1.734375 -5.707031 1.734375 -5.34375 C 1.734375 -5.082031 1.738281 -4.8125 1.75 -4.53125 C 1.75 -4.4375 1.769531 -4.34375 1.8125 -4.25 C 1.820312 -4.207031 1.828125 -4.175781 1.828125 -4.15625 C 1.828125 -4.144531 1.832031 -4.140625 1.84375 -4.140625 C 1.851562 -4.140625 1.863281 -4.140625 1.875 -4.140625 C 1.882812 -4.140625 1.894531 -4.140625 1.90625 -4.140625 C 1.914062 -4.140625 1.929688 -4.140625 1.953125 -4.140625 C 1.972656 -4.148438 1.988281 -4.160156 2 -4.171875 C 2 -4.203125 2.003906 -4.234375 2.015625 -4.265625 C 2.046875 -4.367188 2.066406 -4.460938 2.078125 -4.546875 C 2.109375 -5.210938 2.125 -5.878906 2.125 -6.546875 C 2.125 -7.035156 2.128906 -7.53125 2.140625 -8.03125 C 2.148438 -9.457031 2.148438 -10.894531 2.140625 -12.34375 C 2.128906 -13.257812 2.097656 -14.179688 2.046875 -15.109375 C 2.023438 -15.503906 2.007812 -15.910156 2 -16.328125 C 2 -16.410156 1.992188 -16.488281 1.984375 -16.5625 C 1.972656 -16.71875 1.96875 -16.867188 1.96875 -17.015625 C 1.988281 -17.523438 2.238281 -17.742188 2.71875 -17.671875 C 2.976562 -17.617188 3.132812 -17.460938 3.1875 -17.203125 C 3.195312 -17.078125 3.210938 -16.953125 3.234375 -16.828125 C 3.273438 -16.492188 3.3125 -16.15625 3.34375 -15.8125 C 3.382812 -14.382812 3.40625 -12.957031 3.40625 -11.53125 C 3.40625 -10.132812 3.398438 -8.738281 3.390625 -7.34375 C 3.390625 -6.707031 3.382812 -6.078125 3.375 -5.453125 C 3.375 -5.398438 3.375 -5.351562 3.375 -5.3125 C 3.375 -5.09375 3.375 -4.875 3.375 -4.65625 C 3.382812 -4.46875 3.421875 -4.34375 3.484375 -4.28125 C 3.554688 -4.21875 3.6875 -4.195312 3.875 -4.21875 C 6.320312 -4.40625 8.648438 -5.03125 10.859375 -6.09375 C 12.097656 -6.695312 13.21875 -7.472656 14.21875 -8.421875 C 14.957031 -9.140625 15.507812 -9.867188 15.875 -10.609375 C 16.238281 -11.347656 16.453125 -12.054688 16.515625 -12.734375 C 16.578125 -13.421875 16.539062 -14.054688 16.40625 -14.640625 C 16.164062 -15.648438 15.628906 -16.519531 14.796875 -17.25 C 13.960938 -17.988281 12.925781 -18.5625 11.6875 -18.96875 C 10.445312 -19.375 9.097656 -19.582031 7.640625 -19.59375 C 6.179688 -19.613281 4.707031 -19.414062 3.21875 -19 C 2.09375 -18.695312 1.015625 -18.269531 -0.015625 -17.71875 C -0.597656 -17.40625 -1.140625 -17.019531 -1.640625 -16.5625 C -1.867188 -16.351562 -2.0625 -16.128906 -2.21875 -15.890625 C -2.382812 -15.648438 -2.457031 -15.363281 -2.4375 -15.03125 C -2.4375 -14.914062 -2.476562 -14.828125 -2.5625 -14.765625 C -2.644531 -14.710938 -2.742188 -14.679688 -2.859375 -14.671875 C -2.984375 -14.660156 -3.113281 -14.664062 -3.25 -14.6875 C -3.5 -14.75 -3.644531 -14.910156 -3.6875 -15.171875 C -3.695312 -15.429688 -3.640625 -15.691406 -3.515625 -15.953125 C -3.316406 -16.335938 -3.054688 -16.679688 -2.734375 -16.984375 C -2.367188 -17.347656 -1.96875 -17.664062 -1.53125 -17.9375 C -1.101562 -18.21875 -0.65625 -18.46875 -0.1875 -18.6875 C 1.726562 -19.570312 3.738281 -20.117188 5.84375 -20.328125 C 6.738281 -20.421875 7.707031 -20.4375 8.75 -20.375 C 9.789062 -20.3125 10.828125 -20.148438 11.859375 -19.890625 C 12.898438 -19.628906 13.863281 -19.253906 14.75 -18.765625 C 15.644531 -18.273438 16.382812 -17.640625 16.96875 -16.859375 C 17.550781 -16.078125 17.910156 -15.144531 18.046875 -14.0625 C 18.117188 -13.363281 18.070312 -12.6875 17.90625 -12.03125 C 17.75 -11.375 17.503906 -10.738281 17.171875 -10.125 C 16.546875 -9.007812 15.726562 -8.054688 14.71875 -7.265625 C 13.769531 -6.515625 12.757812 -5.882812 11.6875 -5.375 C 10.613281 -4.863281 9.492188 -4.445312 8.328125 -4.125 C 7.234375 -3.820312 6.125 -3.613281 5 -3.5 C 4.9375 -3.5 4.867188 -3.492188 4.796875 -3.484375 C 4.785156 -3.472656 4.769531 -3.46875 4.75 -3.46875 C 4.695312 -3.46875 4.65625 -3.457031 4.625 -3.4375 C 4.601562 -3.425781 4.585938 -3.394531 4.578125 -3.34375 C 4.554688 -3.238281 4.601562 -3.171875 4.71875 -3.140625 C 4.820312 -3.097656 4.921875 -3.054688 5.015625 -3.015625 C 5.097656 -2.984375 5.1875 -2.953125 5.28125 -2.921875 C 7.070312 -2.242188 8.816406 -1.46875 10.515625 -0.59375 C 12.210938 0.28125 13.875 1.210938 15.5 2.203125 C 15.707031 2.316406 15.898438 2.457031 16.078125 2.625 C 16.109375 2.644531 16.128906 2.679688 16.140625 2.734375 C 16.148438 2.785156 16.15625 2.832031 16.15625 2.875 C 16.144531 2.957031 16.113281 3.019531 16.0625 3.0625 C 16.019531 3.101562 15.96875 3.132812 15.90625 3.15625 C 15.625 3.226562 15.367188 3.179688 15.140625 3.015625 C 14.484375 2.660156 13.816406 2.3125 13.140625 1.96875 C 12.398438 1.570312 11.660156 1.175781 10.921875 0.78125 C 9.828125 0.195312 8.71875 -0.34375 7.59375 -0.84375 C 6.476562 -1.34375 5.347656 -1.820312 4.203125 -2.28125 C 4.160156 -2.289062 4.125 -2.304688 4.09375 -2.328125 C 3.988281 -2.378906 3.878906 -2.421875 3.765625 -2.453125 C 3.660156 -2.484375 3.566406 -2.484375 3.484375 -2.453125 C 3.410156 -2.421875 3.367188 -2.332031 3.359375 -2.1875 Z M 3.359375 -2.1875 "/></g></g></g><g fill="rgb(100%, 100%, 100%)" fill-opacity="1"><g transform="translate(215.16209, 183.849994)"><g><path d="M 8.65625 -4.09375 C 8.84375 -4.125 8.957031 -4.113281 9 -4.0625 C 9.050781 -4.019531 9.066406 -3.945312 9.046875 -3.84375 C 9.035156 -3.664062 8.957031 -3.503906 8.8125 -3.359375 C 8.675781 -3.222656 8.5 -3.101562 8.28125 -3 C 7.769531 -2.757812 7.265625 -2.617188 6.765625 -2.578125 C 6.273438 -2.546875 5.765625 -2.59375 5.234375 -2.71875 C 4.992188 -2.78125 4.789062 -2.78125 4.625 -2.71875 C 4.457031 -2.65625 4.285156 -2.460938 4.109375 -2.140625 C 3.679688 -1.316406 3.003906 -0.851562 2.078125 -0.75 C 1.378906 -0.6875 0.863281 -0.816406 0.53125 -1.140625 C 0.195312 -1.472656 -0.015625 -1.898438 -0.109375 -2.421875 C -0.210938 -2.953125 -0.1875 -3.445312 -0.03125 -3.90625 C 0.113281 -4.375 0.359375 -4.804688 0.703125 -5.203125 C 0.972656 -5.492188 1.300781 -5.613281 1.6875 -5.5625 C 1.875 -5.5625 2.019531 -5.492188 2.125 -5.359375 C 2.175781 -5.265625 2.179688 -5.179688 2.140625 -5.109375 C 2.109375 -5.046875 2.0625 -4.988281 2 -4.9375 C 1.4375 -4.34375 1.171875 -3.644531 1.203125 -2.84375 C 1.210938 -2.46875 1.320312 -2.125 1.53125 -1.8125 C 1.71875 -1.550781 1.945312 -1.515625 2.21875 -1.703125 C 2.476562 -1.910156 2.707031 -2.195312 2.90625 -2.5625 C 3.113281 -2.925781 3.226562 -3.300781 3.25 -3.6875 C 3.28125 -4.070312 3.175781 -4.410156 2.9375 -4.703125 C 2.8125 -4.816406 2.691406 -4.898438 2.578125 -4.953125 C 2.523438 -4.984375 2.472656 -5.007812 2.421875 -5.03125 C 2.378906 -5.0625 2.359375 -5.101562 2.359375 -5.15625 C 2.347656 -5.414062 2.441406 -5.601562 2.640625 -5.71875 C 2.847656 -5.84375 3.101562 -5.90625 3.40625 -5.90625 C 3.707031 -5.90625 3.984375 -5.84375 4.234375 -5.71875 C 4.492188 -5.601562 4.664062 -5.429688 4.75 -5.203125 C 4.832031 -4.910156 4.851562 -4.613281 4.8125 -4.3125 C 4.800781 -4.0625 4.90625 -3.867188 5.125 -3.734375 C 5.613281 -3.390625 6.148438 -3.265625 6.734375 -3.359375 C 6.984375 -3.410156 7.207031 -3.472656 7.40625 -3.546875 C 7.601562 -3.628906 7.796875 -3.71875 7.984375 -3.8125 C 8.222656 -3.9375 8.445312 -4.03125 8.65625 -4.09375 Z M 8.65625 -4.09375 "/></g></g></g><g fill="rgb(100%, 100%, 100%)" fill-opacity="1"><g transform="translate(223.394454, 183.849994)"><g><path d="M 9.796875 -3.953125 C 9.867188 -3.941406 9.914062 -3.914062 9.9375 -3.875 C 9.96875 -3.84375 9.988281 -3.796875 10 -3.734375 C 10 -3.554688 9.84375 -3.351562 9.53125 -3.125 C 9.21875 -2.90625 8.875 -2.703125 8.5 -2.515625 C 8.125 -2.328125 7.859375 -2.207031 7.703125 -2.15625 C 7.171875 -1.957031 6.648438 -1.890625 6.140625 -1.953125 C 5.640625 -2.015625 5.195312 -2.28125 4.8125 -2.75 C 4.570312 -3.082031 4.390625 -3.234375 4.265625 -3.203125 C 4.148438 -3.171875 4.007812 -3.023438 3.84375 -2.765625 C 3.65625 -2.460938 3.347656 -2.109375 2.921875 -1.703125 C 2.441406 -1.347656 1.992188 -1.179688 1.578125 -1.203125 C 1.160156 -1.222656 0.804688 -1.382812 0.515625 -1.6875 C 0.234375 -1.988281 0.0507812 -2.378906 -0.03125 -2.859375 C -0.125 -3.335938 -0.078125 -3.84375 0.109375 -4.375 C 0.253906 -4.800781 0.566406 -4.976562 1.046875 -4.90625 C 1.171875 -4.882812 1.269531 -4.832031 1.34375 -4.75 C 1.425781 -4.664062 1.445312 -4.5625 1.40625 -4.4375 C 1.3125 -4.007812 1.273438 -3.582031 1.296875 -3.15625 C 1.285156 -2.882812 1.335938 -2.628906 1.453125 -2.390625 C 1.566406 -2.179688 1.722656 -2.144531 1.921875 -2.28125 C 2.117188 -2.414062 2.316406 -2.613281 2.515625 -2.875 C 2.722656 -3.144531 2.882812 -3.363281 3 -3.53125 C 3.019531 -3.582031 3.039062 -3.625 3.0625 -3.65625 C 3.101562 -3.71875 3.148438 -3.78125 3.203125 -3.84375 C 3.335938 -4.0625 3.484375 -4.269531 3.640625 -4.46875 C 3.921875 -4.789062 4.273438 -4.925781 4.703125 -4.875 C 5.066406 -4.851562 5.320312 -4.671875 5.46875 -4.328125 C 5.769531 -3.566406 6.207031 -3.148438 6.78125 -3.078125 C 7.363281 -3.003906 7.992188 -3.1875 8.671875 -3.625 C 8.835938 -3.75 9.007812 -3.84375 9.1875 -3.90625 C 9.375 -3.976562 9.578125 -3.992188 9.796875 -3.953125 Z M 9.796875 -3.953125 "/></g></g></g><g fill="rgb(100%, 100%, 100%)" fill-opacity="1"><g transform="translate(232.306346, 183.849994)"><g><path d="M 6.890625 -3.921875 C 7.085938 -3.878906 7.195312 -3.769531 7.21875 -3.59375 C 7.238281 -3.414062 7.148438 -3.238281 6.953125 -3.0625 C 6.753906 -2.882812 6.5625 -2.722656 6.375 -2.578125 C 5.914062 -2.203125 5.425781 -1.800781 4.90625 -1.375 C 4.488281 -1.039062 4.109375 -0.671875 3.765625 -0.265625 C 3.515625 0.00390625 3.328125 0.3125 3.203125 0.65625 C 3.066406 1.101562 2.835938 1.503906 2.515625 1.859375 C 2.328125 2.066406 2.113281 2.191406 1.875 2.234375 C 1.644531 2.285156 1.40625 2.273438 1.15625 2.203125 C 1.03125 2.171875 0.9375 2.101562 0.875 2 C 0.8125 1.90625 0.796875 1.796875 0.828125 1.671875 C 0.867188 1.484375 0.941406 1.300781 1.046875 1.125 C 1.203125 0.90625 1.363281 0.691406 1.53125 0.484375 C 1.539062 0.460938 1.554688 0.441406 1.578125 0.421875 C 2.179688 -0.328125 2.21875 -1.09375 1.6875 -1.875 C 1.5625 -2.039062 1.421875 -2.207031 1.265625 -2.375 C 1.210938 -2.425781 1.160156 -2.484375 1.109375 -2.546875 C 1.015625 -2.660156 0.914062 -2.769531 0.8125 -2.875 C 0.613281 -3.070312 0.425781 -3.285156 0.25 -3.515625 C -0.269531 -4.242188 -0.238281 -4.9375 0.34375 -5.59375 C 0.851562 -6.195312 1.484375 -6.613281 2.234375 -6.84375 C 2.703125 -6.976562 3.15625 -6.9375 3.59375 -6.71875 C 4.019531 -6.488281 4.21875 -6.132812 4.1875 -5.65625 C 4.132812 -5.332031 3.972656 -5.140625 3.703125 -5.078125 C 3.347656 -5.015625 3.09375 -5.125 2.9375 -5.40625 C 2.894531 -5.519531 2.863281 -5.617188 2.84375 -5.703125 C 2.820312 -5.796875 2.789062 -5.863281 2.75 -5.90625 C 2.71875 -5.957031 2.660156 -5.972656 2.578125 -5.953125 C 2.503906 -5.929688 2.378906 -5.867188 2.203125 -5.765625 C 1.941406 -5.609375 1.710938 -5.40625 1.515625 -5.15625 C 1.203125 -4.78125 1.1875 -4.378906 1.46875 -3.953125 C 1.5625 -3.816406 1.664062 -3.691406 1.78125 -3.578125 C 1.90625 -3.429688 2.023438 -3.289062 2.140625 -3.15625 C 2.367188 -2.925781 2.582031 -2.691406 2.78125 -2.453125 C 2.988281 -2.210938 3.171875 -1.957031 3.328125 -1.6875 C 3.441406 -1.707031 3.640625 -1.8125 3.921875 -2 C 4.210938 -2.195312 4.523438 -2.425781 4.859375 -2.6875 C 5.191406 -2.945312 5.5 -3.179688 5.78125 -3.390625 C 6.007812 -3.566406 6.171875 -3.691406 6.265625 -3.765625 C 6.335938 -3.816406 6.429688 -3.859375 6.546875 -3.890625 C 6.660156 -3.921875 6.773438 -3.929688 6.890625 -3.921875 Z M 6.890625 -3.921875 "/></g></g></g><g fill="rgb(100%, 100%, 100%)" fill-opacity="1"><g transform="translate(238.468908, 183.849994)"><g><path d="M 1.671875 -3.0625 C 1.660156 -3.0625 1.648438 -3.0625 1.640625 -3.0625 C 1.640625 -3.0625 1.644531 -3.0625 1.65625 -3.0625 C 1.65625 -3.0625 1.660156 -3.0625 1.671875 -3.0625 Z M 7.140625 -3.84375 C 7.191406 -3.882812 7.28125 -3.925781 7.40625 -3.96875 C 7.53125 -4.019531 7.648438 -4.050781 7.765625 -4.0625 C 7.878906 -4.070312 7.960938 -4.03125 8.015625 -3.9375 C 8.046875 -3.863281 8.050781 -3.796875 8.03125 -3.734375 C 8.019531 -3.671875 7.988281 -3.617188 7.9375 -3.578125 C 7.65625 -3.265625 7.210938 -2.945312 6.609375 -2.625 C 6.003906 -2.300781 5.378906 -2.015625 4.734375 -1.765625 C 4.085938 -1.523438 3.550781 -1.367188 3.125 -1.296875 C 2.632812 -1.210938 2.140625 -1.191406 1.640625 -1.234375 C 1.015625 -1.316406 0.550781 -1.570312 0.25 -2 C -0.0507812 -2.4375 -0.175781 -2.925781 -0.125 -3.46875 C -0.03125 -4.070312 0.242188 -4.550781 0.703125 -4.90625 C 1.171875 -5.269531 1.707031 -5.40625 2.3125 -5.3125 C 2.675781 -5.257812 3.003906 -5.125 3.296875 -4.90625 C 3.617188 -4.644531 3.765625 -4.34375 3.734375 -4 C 3.703125 -3.664062 3.5 -3.410156 3.125 -3.234375 C 2.9375 -3.140625 2.722656 -3.078125 2.484375 -3.046875 C 2.253906 -3.023438 1.984375 -3.03125 1.671875 -3.0625 C 1.671875 -3.0625 1.660156 -3.0625 1.640625 -3.0625 C 1.628906 -3.0625 1.601562 -3.0625 1.5625 -3.0625 C 1.53125 -3.0625 1.5 -3.0625 1.46875 -3.0625 C 1.375 -3.0625 1.3125 -3.035156 1.28125 -2.984375 C 1.25 -2.929688 1.25 -2.863281 1.28125 -2.78125 C 1.445312 -2.351562 1.78125 -2.128906 2.28125 -2.109375 C 2.789062 -2.085938 3.363281 -2.179688 4 -2.390625 C 4.632812 -2.609375 5.238281 -2.859375 5.8125 -3.140625 C 6.382812 -3.421875 6.828125 -3.65625 7.140625 -3.84375 Z M 1.65625 -4.34375 C 1.570312 -4.289062 1.515625 -4.222656 1.484375 -4.140625 C 1.460938 -4.066406 1.445312 -4.003906 1.4375 -3.953125 C 1.4375 -3.898438 1.445312 -3.867188 1.46875 -3.859375 C 1.488281 -3.847656 1.550781 -3.832031 1.65625 -3.8125 C 1.769531 -3.800781 1.890625 -3.800781 2.015625 -3.8125 C 2.148438 -3.820312 2.257812 -3.847656 2.34375 -3.890625 C 2.4375 -3.941406 2.46875 -4.023438 2.4375 -4.140625 C 2.382812 -4.296875 2.273438 -4.394531 2.109375 -4.4375 C 1.941406 -4.476562 1.789062 -4.445312 1.65625 -4.34375 Z M 1.65625 -4.34375 "/></g></g></g></svg>