<svg xmlns="http://www.w3.org/2000/svg" xmlns:xlink="http://www.w3.org/1999/xlink" width="160" zoomAndPan="magnify" viewBox="0 0 120 119.999999" height="160" preserveAspectRatio="xMidYMid meet" version="1.0"><defs><g><g id="id1"/></g><clipPath id="id2"><path d="M 32.398438 36.078125 L 83.398438 36.078125 L 83.398438 78.078125 L 32.398438 78.078125 Z M 32.398438 36.078125 " clip-rule="nonzero"/></clipPath></defs><g clip-path="url(#id2)"><path fill="rgb(0%, 0%, 0%)" d="M 33.433594 36.078125 L 82.359375 36.078125 C 82.492188 36.078125 82.621094 36.105469 82.742188 36.15625 C 82.863281 36.207031 82.972656 36.277344 83.0625 36.371094 C 83.15625 36.46875 83.230469 36.574219 83.28125 36.699219 C 83.332031 36.820312 83.355469 36.949219 83.355469 37.082031 L 83.355469 77.082031 C 83.355469 77.214844 83.332031 77.34375 83.28125 77.46875 C 83.230469 77.589844 83.15625 77.699219 83.0625 77.792969 C 82.972656 77.886719 82.863281 77.960938 82.742188 78.011719 C 82.621094 78.0625 82.492188 78.085938 82.359375 78.085938 L 33.433594 78.085938 C 33.304688 78.085938 33.175781 78.0625 33.054688 78.011719 C 32.933594 77.960938 32.824219 77.886719 32.730469 77.792969 C 32.640625 77.699219 32.566406 77.589844 32.515625 77.46875 C 32.464844 77.34375 32.441406 77.214844 32.441406 77.082031 L 32.441406 37.082031 C 32.441406 36.949219 32.464844 36.820312 32.515625 36.699219 C 32.566406 36.574219 32.640625 36.46875 32.730469 36.371094 C 32.824219 36.277344 32.933594 36.207031 33.054688 36.15625 C 33.175781 36.105469 33.304688 36.078125 33.433594 36.078125 Z M 33.433594 36.078125 " fill-opacity="1" fill-rule="nonzero"/></g><path fill="rgb(100%, 100%, 100%)" d="M 38.058594 40.449219 C 37.886719 40.277344 37.683594 40.191406 37.441406 40.191406 C 37.199219 40.191406 36.996094 40.277344 36.824219 40.449219 C 36.652344 40.621094 36.566406 40.828125 36.566406 41.074219 C 36.566406 41.316406 36.652344 41.523438 36.824219 41.695312 L 39.496094 44.390625 L 36.824219 47.085938 C 36.652344 47.261719 36.566406 47.46875 36.566406 47.710938 C 36.566406 47.953125 36.652344 48.160156 36.824219 48.332031 C 36.996094 48.503906 37.199219 48.589844 37.4375 48.59375 C 37.683594 48.59375 37.886719 48.503906 38.058594 48.332031 L 41.03125 45.332031 C 41.652344 44.707031 41.652344 44.078125 41.03125 43.449219 Z M 49.703125 47.089844 C 49.53125 46.917969 49.320312 46.832031 49.078125 46.832031 L 49.078125 46.828125 L 43.34375 46.828125 L 43.34375 46.832031 C 43.101562 46.832031 42.894531 46.917969 42.722656 47.089844 C 42.550781 47.265625 42.464844 47.472656 42.464844 47.71875 C 42.464844 47.964844 42.550781 48.171875 42.722656 48.347656 C 42.894531 48.519531 43.101562 48.605469 43.34375 48.605469 L 49.078125 48.605469 C 49.320312 48.605469 49.53125 48.519531 49.703125 48.347656 C 49.875 48.171875 49.960938 47.964844 49.960938 47.71875 C 49.960938 47.472656 49.875 47.265625 49.703125 47.089844 Z M 49.703125 47.089844 " fill-opacity="1" fill-rule="nonzero"/><g fill="rgb(100%, 100%, 100%)" fill-opacity="1"><g transform="translate(37.507015, 58.832003)"><g><path d="M 8.75 -1.09375 C 8.695312 -1.03125 8.640625 -0.96875 8.578125 -0.90625 C 8.515625 -0.851562 8.472656 -0.8125 8.453125 -0.78125 C 8.359375 -0.695312 8.265625 -0.617188 8.171875 -0.546875 C 7.953125 -0.347656 7.726562 -0.160156 7.5 0.015625 C 6.976562 0.421875 6.4375 0.800781 5.875 1.15625 C 4.976562 1.707031 4.007812 2.046875 2.96875 2.171875 C 2.570312 2.222656 2.171875 2.210938 1.765625 2.140625 C 1.242188 2.035156 0.847656 1.84375 0.578125 1.5625 C 0.304688 1.289062 0.140625 0.960938 0.078125 0.578125 C 0.0234375 0.203125 0.0625 -0.179688 0.1875 -0.578125 C 0.320312 -0.984375 0.523438 -1.367188 0.796875 -1.734375 C 1.148438 -2.160156 1.582031 -2.53125 2.09375 -2.84375 C 2.613281 -3.15625 3.175781 -3.398438 3.78125 -3.578125 C 3.914062 -3.609375 4 -3.632812 4.03125 -3.65625 C 4.0625 -3.6875 4.054688 -3.710938 4.015625 -3.734375 C 3.984375 -3.765625 3.929688 -3.789062 3.859375 -3.8125 C 3.773438 -3.84375 3.691406 -3.878906 3.609375 -3.921875 C 3.492188 -3.972656 3.382812 -4.039062 3.28125 -4.125 C 3.007812 -4.320312 2.851562 -4.546875 2.8125 -4.796875 C 2.769531 -5.046875 2.84375 -5.3125 3.03125 -5.59375 C 3.050781 -5.625 3.070312 -5.648438 3.09375 -5.671875 C 3.101562 -5.703125 3.117188 -5.726562 3.140625 -5.75 C 3.160156 -5.769531 3.164062 -5.789062 3.15625 -5.8125 C 3.144531 -5.832031 3.128906 -5.847656 3.109375 -5.859375 C 3.054688 -5.890625 3 -5.914062 2.9375 -5.9375 C 2.90625 -5.957031 2.878906 -5.972656 2.859375 -5.984375 C 2.585938 -6.117188 2.335938 -6.28125 2.109375 -6.46875 C 2.054688 -6.507812 2.007812 -6.550781 1.96875 -6.59375 C 1.925781 -6.632812 1.890625 -6.6875 1.859375 -6.75 C 1.835938 -6.789062 1.832031 -6.828125 1.84375 -6.859375 C 1.863281 -6.890625 1.894531 -6.910156 1.9375 -6.921875 C 1.988281 -6.941406 2.035156 -6.945312 2.078125 -6.9375 C 2.117188 -6.9375 2.160156 -6.914062 2.203125 -6.875 C 2.265625 -6.78125 2.375 -6.671875 2.53125 -6.546875 C 2.695312 -6.429688 2.863281 -6.320312 3.03125 -6.21875 C 3.207031 -6.113281 3.347656 -6.054688 3.453125 -6.046875 C 3.515625 -6.046875 3.578125 -6.0625 3.640625 -6.09375 C 3.859375 -6.195312 4.109375 -6.273438 4.390625 -6.328125 C 4.671875 -6.378906 4.953125 -6.398438 5.234375 -6.390625 C 5.523438 -6.378906 5.78125 -6.328125 6 -6.234375 C 6.125 -6.179688 6.226562 -6.101562 6.3125 -6 C 6.414062 -5.84375 6.394531 -5.703125 6.25 -5.578125 C 6.144531 -5.492188 6.019531 -5.441406 5.875 -5.421875 C 5.695312 -5.378906 5.515625 -5.359375 5.328125 -5.359375 C 5.148438 -5.359375 4.972656 -5.363281 4.796875 -5.375 C 4.429688 -5.414062 4.082031 -5.492188 3.75 -5.609375 C 3.664062 -5.640625 3.601562 -5.648438 3.5625 -5.640625 C 3.53125 -5.628906 3.492188 -5.59375 3.453125 -5.53125 C 3.390625 -5.445312 3.335938 -5.363281 3.296875 -5.28125 C 3.148438 -4.945312 3.210938 -4.65625 3.484375 -4.40625 C 3.609375 -4.289062 3.769531 -4.179688 3.96875 -4.078125 C 4.164062 -3.984375 4.367188 -3.910156 4.578125 -3.859375 C 4.796875 -3.816406 4.992188 -3.8125 5.171875 -3.84375 C 5.265625 -3.875 5.359375 -3.875 5.453125 -3.84375 C 5.492188 -3.820312 5.515625 -3.785156 5.515625 -3.734375 C 5.515625 -3.679688 5.492188 -3.648438 5.453125 -3.640625 C 5.359375 -3.617188 5.265625 -3.601562 5.171875 -3.59375 C 4.753906 -3.539062 4.316406 -3.441406 3.859375 -3.296875 C 3.410156 -3.148438 2.972656 -2.957031 2.546875 -2.71875 C 2.117188 -2.488281 1.742188 -2.210938 1.421875 -1.890625 C 1.097656 -1.566406 0.859375 -1.195312 0.703125 -0.78125 C 0.546875 -0.363281 0.515625 0.0976562 0.609375 0.609375 C 0.679688 0.984375 0.820312 1.269531 1.03125 1.46875 C 1.25 1.664062 1.503906 1.796875 1.796875 1.859375 C 2.097656 1.921875 2.410156 1.941406 2.734375 1.921875 C 3.066406 1.898438 3.378906 1.851562 3.671875 1.78125 C 4.035156 1.6875 4.382812 1.5625 4.71875 1.40625 C 5.0625 1.257812 5.390625 1.082031 5.703125 0.875 C 6.097656 0.625 6.476562 0.359375 6.84375 0.078125 C 7.21875 -0.191406 7.585938 -0.472656 7.953125 -0.765625 C 7.960938 -0.773438 7.988281 -0.800781 8.03125 -0.84375 C 8.070312 -0.882812 8.125 -0.929688 8.1875 -0.984375 C 8.476562 -1.222656 8.65625 -1.328125 8.71875 -1.296875 C 8.757812 -1.285156 8.785156 -1.257812 8.796875 -1.21875 C 8.804688 -1.1875 8.789062 -1.144531 8.75 -1.09375 Z M 4.296875 -6.046875 C 4.285156 -6.046875 4.253906 -6.035156 4.203125 -6.015625 C 4.160156 -6.003906 4.113281 -5.984375 4.0625 -5.953125 C 4.007812 -5.929688 3.972656 -5.90625 3.953125 -5.875 C 3.941406 -5.851562 3.960938 -5.835938 4.015625 -5.828125 C 4.515625 -5.648438 5.023438 -5.578125 5.546875 -5.609375 C 5.773438 -5.640625 5.90625 -5.691406 5.9375 -5.765625 C 5.96875 -5.835938 5.929688 -5.910156 5.828125 -5.984375 C 5.722656 -6.054688 5.582031 -6.101562 5.40625 -6.125 C 5.25 -6.144531 5.070312 -6.148438 4.875 -6.140625 C 4.675781 -6.128906 4.484375 -6.097656 4.296875 -6.046875 Z M 4.296875 -6.046875 "/></g></g></g><g fill="rgb(100%, 100%, 100%)" fill-opacity="1"><g transform="translate(46.057429, 58.832003)"><g><path d="M 3.46875 -1.265625 C 3.5 -1.265625 3.523438 -1.257812 3.546875 -1.25 C 3.566406 -1.238281 3.578125 -1.210938 3.578125 -1.171875 C 3.585938 -1.160156 3.582031 -1.132812 3.5625 -1.09375 C 3.539062 -1.0625 3.515625 -1.03125 3.484375 -1 C 3.460938 -0.96875 3.445312 -0.941406 3.4375 -0.921875 C 3.3125 -0.796875 3.175781 -0.710938 3.03125 -0.671875 C 2.882812 -0.628906 2.726562 -0.625 2.5625 -0.65625 C 2.476562 -0.664062 2.40625 -0.695312 2.34375 -0.75 C 2.28125 -0.800781 2.226562 -0.863281 2.1875 -0.9375 C 2.175781 -0.945312 2.171875 -0.953125 2.171875 -0.953125 C 2.117188 -1.035156 2.0625 -1.117188 2 -1.203125 C 1.96875 -1.242188 1.9375 -1.265625 1.90625 -1.265625 C 1.882812 -1.265625 1.859375 -1.242188 1.828125 -1.203125 C 1.710938 -1.097656 1.613281 -0.984375 1.53125 -0.859375 C 1.457031 -0.742188 1.347656 -0.691406 1.203125 -0.703125 C 1.097656 -0.710938 1.03125 -0.769531 1 -0.875 C 0.988281 -0.894531 0.984375 -0.921875 0.984375 -0.953125 C 0.972656 -1.078125 0.941406 -1.113281 0.890625 -1.0625 C 0.847656 -1.007812 0.800781 -0.929688 0.75 -0.828125 C 0.726562 -0.796875 0.707031 -0.757812 0.6875 -0.71875 C 0.664062 -0.675781 0.640625 -0.632812 0.609375 -0.59375 C 0.585938 -0.539062 0.5625 -0.492188 0.53125 -0.453125 C 0.476562 -0.378906 0.40625 -0.335938 0.3125 -0.328125 C 0.144531 -0.316406 0.0507812 -0.390625 0.03125 -0.546875 C 0.0195312 -0.691406 0.015625 -0.832031 0.015625 -0.96875 C 0.00390625 -1.03125 0 -1.09375 0 -1.15625 C 0 -1.207031 0 -1.265625 0 -1.328125 C -0.0078125 -1.429688 -0.015625 -1.535156 -0.015625 -1.640625 C -0.0234375 -1.765625 0.03125 -1.832031 0.15625 -1.84375 C 0.289062 -1.851562 0.367188 -1.800781 0.390625 -1.6875 C 0.410156 -1.570312 0.425781 -1.457031 0.4375 -1.34375 C 0.4375 -1.269531 0.441406 -1.222656 0.453125 -1.203125 C 0.472656 -1.191406 0.488281 -1.191406 0.5 -1.203125 C 0.507812 -1.210938 0.523438 -1.226562 0.546875 -1.25 C 0.554688 -1.269531 0.570312 -1.289062 0.59375 -1.3125 C 0.625 -1.363281 0.660156 -1.410156 0.703125 -1.453125 C 0.816406 -1.546875 0.945312 -1.585938 1.09375 -1.578125 C 1.21875 -1.566406 1.304688 -1.503906 1.359375 -1.390625 C 1.378906 -1.347656 1.410156 -1.335938 1.453125 -1.359375 C 1.492188 -1.390625 1.546875 -1.425781 1.609375 -1.46875 C 1.679688 -1.507812 1.757812 -1.539062 1.84375 -1.5625 C 2.03125 -1.59375 2.191406 -1.539062 2.328125 -1.40625 C 2.390625 -1.332031 2.453125 -1.257812 2.515625 -1.1875 C 2.515625 -1.175781 2.519531 -1.164062 2.53125 -1.15625 C 2.550781 -1.132812 2.566406 -1.113281 2.578125 -1.09375 C 2.585938 -1.070312 2.597656 -1.046875 2.609375 -1.015625 C 2.671875 -0.941406 2.734375 -0.898438 2.796875 -0.890625 C 2.867188 -0.890625 2.9375 -0.910156 3 -0.953125 C 3.070312 -1.003906 3.140625 -1.054688 3.203125 -1.109375 C 3.253906 -1.148438 3.300781 -1.1875 3.34375 -1.21875 C 3.382812 -1.25 3.425781 -1.265625 3.46875 -1.265625 Z M 3.46875 -1.265625 "/></g></g></g><g fill="rgb(100%, 100%, 100%)" fill-opacity="1"><g transform="translate(49.356623, 58.832003)"><g><path d="M 2.296875 -1.265625 C 2.304688 -1.253906 2.316406 -1.242188 2.328125 -1.234375 C 2.335938 -1.234375 2.347656 -1.222656 2.359375 -1.203125 C 2.359375 -1.179688 2.347656 -1.15625 2.328125 -1.125 C 2.304688 -1.09375 2.285156 -1.066406 2.265625 -1.046875 C 2.128906 -0.921875 1.972656 -0.84375 1.796875 -0.8125 C 1.679688 -0.800781 1.570312 -0.796875 1.46875 -0.796875 C 1.363281 -0.804688 1.257812 -0.835938 1.15625 -0.890625 C 1.082031 -0.921875 1.015625 -0.90625 0.953125 -0.84375 C 0.828125 -0.726562 0.691406 -0.613281 0.546875 -0.5 C 0.472656 -0.445312 0.394531 -0.398438 0.3125 -0.359375 C 0.226562 -0.328125 0.140625 -0.3125 0.046875 -0.3125 C -0.234375 -0.3125 -0.34375 -0.445312 -0.28125 -0.71875 C -0.28125 -0.726562 -0.273438 -0.734375 -0.265625 -0.734375 C -0.179688 -0.953125 -0.078125 -1.148438 0.046875 -1.328125 C 0.179688 -1.503906 0.347656 -1.648438 0.546875 -1.765625 C 0.679688 -1.835938 0.828125 -1.867188 0.984375 -1.859375 C 1.023438 -1.847656 1.0625 -1.832031 1.09375 -1.8125 C 1.132812 -1.789062 1.15625 -1.753906 1.15625 -1.703125 C 1.144531 -1.691406 1.132812 -1.679688 1.125 -1.671875 C 1.113281 -1.660156 1.101562 -1.648438 1.09375 -1.640625 C 1.09375 -1.628906 1.082031 -1.617188 1.0625 -1.609375 C 1.050781 -1.609375 1.039062 -1.609375 1.03125 -1.609375 C 0.925781 -1.609375 0.832031 -1.578125 0.75 -1.515625 C 0.675781 -1.453125 0.601562 -1.382812 0.53125 -1.3125 C 0.457031 -1.226562 0.390625 -1.132812 0.328125 -1.03125 C 0.265625 -0.9375 0.210938 -0.820312 0.171875 -0.6875 C 0.316406 -0.769531 0.429688 -0.851562 0.515625 -0.9375 C 0.535156 -0.957031 0.554688 -0.972656 0.578125 -0.984375 C 0.585938 -1.003906 0.601562 -1.019531 0.625 -1.03125 C 0.695312 -1.09375 0.773438 -1.148438 0.859375 -1.203125 C 0.941406 -1.253906 1.03125 -1.28125 1.125 -1.28125 C 1.21875 -1.28125 1.304688 -1.242188 1.390625 -1.171875 C 1.503906 -1.066406 1.613281 -1.023438 1.71875 -1.046875 C 1.832031 -1.078125 1.9375 -1.117188 2.03125 -1.171875 C 2.132812 -1.234375 2.222656 -1.265625 2.296875 -1.265625 Z M 2.296875 -1.265625 "/></g></g></g><g fill="rgb(100%, 100%, 100%)" fill-opacity="1"><g transform="translate(51.473608, 58.832003)"><g><path d="M 3.296875 -1.171875 C 3.296875 -1.171875 3.300781 -1.171875 3.3125 -1.171875 C 3.320312 -1.171875 3.335938 -1.164062 3.359375 -1.15625 C 3.378906 -1.144531 3.390625 -1.128906 3.390625 -1.109375 C 3.398438 -1.054688 3.390625 -1.019531 3.359375 -1 C 3.210938 -0.882812 3.050781 -0.800781 2.875 -0.75 C 2.71875 -0.695312 2.5625 -0.660156 2.40625 -0.640625 C 2.25 -0.628906 2.085938 -0.632812 1.921875 -0.65625 C 1.710938 -0.675781 1.546875 -0.773438 1.421875 -0.953125 C 1.378906 -1.003906 1.335938 -1.054688 1.296875 -1.109375 C 1.253906 -1.171875 1.210938 -1.226562 1.171875 -1.28125 C 1.140625 -1.332031 1.09375 -1.335938 1.03125 -1.296875 C 0.96875 -1.253906 0.910156 -1.203125 0.859375 -1.140625 C 0.804688 -1.078125 0.753906 -1.015625 0.703125 -0.953125 C 0.703125 -0.941406 0.695312 -0.929688 0.6875 -0.921875 C 0.675781 -0.898438 0.660156 -0.878906 0.640625 -0.859375 C 0.617188 -0.816406 0.59375 -0.78125 0.5625 -0.75 C 0.507812 -0.6875 0.445312 -0.644531 0.375 -0.625 C 0.300781 -0.613281 0.226562 -0.625 0.15625 -0.65625 C 0.101562 -0.6875 0.0703125 -0.722656 0.0625 -0.765625 C 0.0078125 -0.960938 -0.0195312 -1.15625 -0.03125 -1.34375 C -0.03125 -1.445312 0.015625 -1.507812 0.109375 -1.53125 C 0.222656 -1.550781 0.300781 -1.515625 0.34375 -1.421875 C 0.351562 -1.398438 0.359375 -1.378906 0.359375 -1.359375 C 0.367188 -1.335938 0.375 -1.316406 0.375 -1.296875 C 0.382812 -1.273438 0.40625 -1.257812 0.4375 -1.25 C 0.46875 -1.269531 0.492188 -1.289062 0.515625 -1.3125 C 0.578125 -1.363281 0.632812 -1.414062 0.6875 -1.46875 C 0.75 -1.519531 0.816406 -1.554688 0.890625 -1.578125 C 0.972656 -1.609375 1.054688 -1.625 1.140625 -1.625 C 1.328125 -1.625 1.476562 -1.546875 1.59375 -1.390625 C 1.613281 -1.359375 1.640625 -1.328125 1.671875 -1.296875 C 1.710938 -1.222656 1.765625 -1.148438 1.828125 -1.078125 C 1.910156 -0.960938 2.023438 -0.90625 2.171875 -0.90625 C 2.328125 -0.894531 2.472656 -0.90625 2.609375 -0.9375 C 2.742188 -0.976562 2.875 -1.03125 3 -1.09375 C 3.007812 -1.101562 3.015625 -1.109375 3.015625 -1.109375 C 3.066406 -1.140625 3.113281 -1.160156 3.15625 -1.171875 C 3.195312 -1.179688 3.242188 -1.179688 3.296875 -1.171875 Z M 3.296875 -1.171875 "/></g></g></g><g fill="rgb(100%, 100%, 100%)" fill-opacity="1"><g transform="translate(54.557854, 58.832003)"><g><path d="M 3.140625 -1.265625 C 3.160156 -1.265625 3.175781 -1.253906 3.1875 -1.234375 C 3.195312 -1.222656 3.203125 -1.207031 3.203125 -1.1875 C 3.203125 -1.132812 3.148438 -1.070312 3.046875 -1 C 2.953125 -0.925781 2.84375 -0.859375 2.71875 -0.796875 C 2.601562 -0.742188 2.519531 -0.707031 2.46875 -0.6875 C 2.300781 -0.625 2.132812 -0.601562 1.96875 -0.625 C 1.800781 -0.644531 1.660156 -0.726562 1.546875 -0.875 C 1.460938 -0.976562 1.398438 -1.023438 1.359375 -1.015625 C 1.328125 -1.015625 1.285156 -0.972656 1.234375 -0.890625 C 1.171875 -0.785156 1.070312 -0.671875 0.9375 -0.546875 C 0.78125 -0.429688 0.632812 -0.375 0.5 -0.375 C 0.363281 -0.382812 0.25 -0.4375 0.15625 -0.53125 C 0.0703125 -0.632812 0.015625 -0.757812 -0.015625 -0.90625 C -0.046875 -1.0625 -0.03125 -1.226562 0.03125 -1.40625 C 0.0820312 -1.539062 0.179688 -1.597656 0.328125 -1.578125 C 0.367188 -1.566406 0.398438 -1.546875 0.421875 -1.515625 C 0.453125 -1.492188 0.460938 -1.460938 0.453125 -1.421875 C 0.421875 -1.285156 0.40625 -1.148438 0.40625 -1.015625 C 0.40625 -0.921875 0.425781 -0.835938 0.46875 -0.765625 C 0.5 -0.691406 0.546875 -0.675781 0.609375 -0.71875 C 0.671875 -0.769531 0.734375 -0.835938 0.796875 -0.921875 C 0.867188 -1.003906 0.921875 -1.070312 0.953125 -1.125 C 0.960938 -1.144531 0.972656 -1.160156 0.984375 -1.171875 C 0.992188 -1.191406 1.007812 -1.210938 1.03125 -1.234375 C 1.070312 -1.304688 1.117188 -1.367188 1.171875 -1.421875 C 1.253906 -1.523438 1.363281 -1.570312 1.5 -1.5625 C 1.613281 -1.550781 1.695312 -1.492188 1.75 -1.390625 C 1.84375 -1.140625 1.984375 -1.003906 2.171875 -0.984375 C 2.359375 -0.960938 2.5625 -1.019531 2.78125 -1.15625 C 2.832031 -1.195312 2.882812 -1.226562 2.9375 -1.25 C 3 -1.269531 3.066406 -1.273438 3.140625 -1.265625 Z M 3.140625 -1.265625 "/></g></g></g><g fill="rgb(100%, 100%, 100%)" fill-opacity="1"><g transform="translate(57.409659, 58.832003)"><g><path d="M 0.53125 -0.984375 C 0.53125 -0.984375 0.523438 -0.984375 0.515625 -0.984375 C 0.515625 -0.984375 0.519531 -0.984375 0.53125 -0.984375 Z M 2.28125 -1.234375 C 2.300781 -1.242188 2.332031 -1.253906 2.375 -1.265625 C 2.414062 -1.285156 2.453125 -1.296875 2.484375 -1.296875 C 2.523438 -1.296875 2.550781 -1.285156 2.5625 -1.265625 C 2.570312 -1.234375 2.570312 -1.207031 2.5625 -1.1875 C 2.5625 -1.175781 2.554688 -1.160156 2.546875 -1.140625 C 2.453125 -1.046875 2.304688 -0.945312 2.109375 -0.84375 C 1.921875 -0.738281 1.722656 -0.644531 1.515625 -0.5625 C 1.304688 -0.488281 1.132812 -0.441406 1 -0.421875 C 0.84375 -0.390625 0.679688 -0.378906 0.515625 -0.390625 C 0.316406 -0.421875 0.171875 -0.503906 0.078125 -0.640625 C -0.015625 -0.773438 -0.0507812 -0.929688 -0.03125 -1.109375 C -0.0078125 -1.304688 0.0703125 -1.460938 0.21875 -1.578125 C 0.375 -1.691406 0.546875 -1.734375 0.734375 -1.703125 C 0.847656 -1.679688 0.957031 -1.640625 1.0625 -1.578125 C 1.164062 -1.492188 1.207031 -1.394531 1.1875 -1.28125 C 1.175781 -1.175781 1.113281 -1.09375 1 -1.03125 C 0.9375 -1 0.867188 -0.976562 0.796875 -0.96875 C 0.722656 -0.96875 0.632812 -0.972656 0.53125 -0.984375 C 0.53125 -0.984375 0.523438 -0.984375 0.515625 -0.984375 C 0.515625 -0.984375 0.507812 -0.984375 0.5 -0.984375 C 0.488281 -0.984375 0.476562 -0.984375 0.46875 -0.984375 C 0.4375 -0.984375 0.414062 -0.972656 0.40625 -0.953125 C 0.394531 -0.929688 0.394531 -0.910156 0.40625 -0.890625 C 0.457031 -0.753906 0.5625 -0.679688 0.71875 -0.671875 C 0.882812 -0.660156 1.070312 -0.691406 1.28125 -0.765625 C 1.488281 -0.835938 1.679688 -0.914062 1.859375 -1 C 2.046875 -1.09375 2.1875 -1.171875 2.28125 -1.234375 Z M 0.53125 -1.390625 C 0.5 -1.367188 0.476562 -1.347656 0.46875 -1.328125 C 0.46875 -1.304688 0.460938 -1.285156 0.453125 -1.265625 C 0.453125 -1.242188 0.457031 -1.234375 0.46875 -1.234375 C 0.476562 -1.234375 0.5 -1.226562 0.53125 -1.21875 C 0.5625 -1.21875 0.597656 -1.21875 0.640625 -1.21875 C 0.679688 -1.21875 0.71875 -1.222656 0.75 -1.234375 C 0.78125 -1.253906 0.789062 -1.285156 0.78125 -1.328125 C 0.757812 -1.378906 0.722656 -1.410156 0.671875 -1.421875 C 0.617188 -1.429688 0.570312 -1.421875 0.53125 -1.390625 Z M 0.53125 -1.390625 "/></g></g></g><g fill="rgb(100%, 100%, 100%)" fill-opacity="1"><g transform="translate(59.719095, 58.832003)"><g><path d="M 2.125 -1.203125 C 2.195312 -1.273438 2.253906 -1.289062 2.296875 -1.25 C 2.347656 -1.207031 2.351562 -1.125 2.3125 -1 C 2.195312 -0.78125 2.046875 -0.570312 1.859375 -0.375 C 1.679688 -0.175781 1.476562 -0.0351562 1.25 0.046875 C 1.15625 0.078125 1.054688 0.09375 0.953125 0.09375 C 0.847656 0.09375 0.75 0.0820312 0.65625 0.0625 C 0.5625 0.0390625 0.476562 0 0.40625 -0.0625 C 0.34375 -0.125 0.289062 -0.191406 0.25 -0.265625 C 0.101562 -0.535156 0.015625 -0.914062 -0.015625 -1.40625 C -0.0546875 -1.90625 -0.0625 -2.445312 -0.03125 -3.03125 C 0 -3.625 0.046875 -4.191406 0.109375 -4.734375 C 0.179688 -5.273438 0.25 -5.722656 0.3125 -6.078125 C 0.351562 -6.222656 0.40625 -6.363281 0.46875 -6.5 C 0.539062 -6.632812 0.65625 -6.695312 0.8125 -6.6875 C 0.957031 -6.6875 1.054688 -6.617188 1.109375 -6.484375 C 1.160156 -6.304688 1.191406 -6.128906 1.203125 -5.953125 C 1.234375 -5.523438 1.222656 -5.097656 1.171875 -4.671875 C 1.117188 -4.265625 1.050781 -3.882812 0.96875 -3.53125 C 0.894531 -3.175781 0.816406 -2.832031 0.734375 -2.5 C 0.628906 -2.082031 0.53125 -1.644531 0.4375 -1.1875 C 0.4375 -1.132812 0.441406 -1.09375 0.453125 -1.0625 C 0.460938 -0.9375 0.476562 -0.828125 0.5 -0.734375 C 0.519531 -0.640625 0.570312 -0.523438 0.65625 -0.390625 C 0.726562 -0.253906 0.816406 -0.179688 0.921875 -0.171875 C 1.035156 -0.171875 1.148438 -0.203125 1.265625 -0.265625 C 1.390625 -0.335938 1.5 -0.421875 1.59375 -0.515625 C 1.695312 -0.617188 1.773438 -0.710938 1.828125 -0.796875 C 1.847656 -0.816406 1.878906 -0.851562 1.921875 -0.90625 C 1.960938 -0.96875 2 -1.023438 2.03125 -1.078125 C 2.070312 -1.140625 2.101562 -1.179688 2.125 -1.203125 Z M 0.390625 -2.53125 C 0.429688 -2.65625 0.472656 -2.847656 0.515625 -3.109375 C 0.566406 -3.378906 0.613281 -3.679688 0.65625 -4.015625 C 0.695312 -4.347656 0.726562 -4.660156 0.75 -4.953125 C 0.769531 -5.253906 0.773438 -5.492188 0.765625 -5.671875 C 0.765625 -5.859375 0.742188 -5.9375 0.703125 -5.90625 C 0.640625 -5.65625 0.597656 -5.421875 0.578125 -5.203125 C 0.566406 -5.085938 0.550781 -4.914062 0.53125 -4.6875 C 0.488281 -4.300781 0.445312 -3.890625 0.40625 -3.453125 C 0.375 -3.015625 0.367188 -2.707031 0.390625 -2.53125 Z M 0.390625 -2.53125 "/></g></g></g><g fill="rgb(100%, 100%, 100%)" fill-opacity="1"><g transform="translate(61.806087, 58.832003)"><g/></g></g><g fill="rgb(100%, 100%, 100%)" fill-opacity="1"><g transform="translate(63.783106, 58.832003)"><g><path d="M 0.59375 -1 C 0.570312 -1.019531 0.554688 -0.972656 0.546875 -0.859375 C 0.546875 -0.753906 0.546875 -0.613281 0.546875 -0.4375 C 0.546875 -0.269531 0.546875 -0.101562 0.546875 0.0625 C 0.554688 0.238281 0.566406 0.382812 0.578125 0.5 C 0.585938 0.625 0.609375 0.6875 0.640625 0.6875 C 0.648438 0.65625 0.65625 0.5625 0.65625 0.40625 C 0.65625 0.25 0.648438 0.0703125 0.640625 -0.125 C 0.640625 -0.320312 0.632812 -0.503906 0.625 -0.671875 C 0.613281 -0.847656 0.601562 -0.957031 0.59375 -1 Z M 1.078125 -0.703125 C 1.066406 -0.546875 1.054688 -0.390625 1.046875 -0.234375 C 1.035156 0.0234375 1.023438 0.285156 1.015625 0.546875 C 0.992188 0.847656 0.96875 1.15625 0.9375 1.46875 C 0.925781 1.550781 0.910156 1.632812 0.890625 1.71875 C 0.847656 1.851562 0.765625 1.921875 0.640625 1.921875 C 0.503906 1.921875 0.414062 1.851562 0.375 1.71875 C 0.34375 1.582031 0.320312 1.445312 0.3125 1.3125 C 0.238281 0.476562 0.195312 -0.359375 0.1875 -1.203125 C 0.175781 -1.484375 0.175781 -1.757812 0.1875 -2.03125 C 0.1875 -2.164062 0.253906 -2.226562 0.390625 -2.21875 C 0.492188 -2.21875 0.546875 -2.164062 0.546875 -2.0625 C 0.554688 -1.945312 0.5625 -1.828125 0.5625 -1.703125 C 0.5625 -1.617188 0.5625 -1.535156 0.5625 -1.453125 C 0.5625 -1.421875 0.566406 -1.390625 0.578125 -1.359375 C 0.578125 -1.347656 0.578125 -1.335938 0.578125 -1.328125 C 0.585938 -1.328125 0.59375 -1.328125 0.59375 -1.328125 C 0.601562 -1.328125 0.609375 -1.328125 0.609375 -1.328125 C 0.609375 -1.328125 0.613281 -1.328125 0.625 -1.328125 C 0.632812 -1.328125 0.640625 -1.332031 0.640625 -1.34375 C 0.640625 -1.34375 0.640625 -1.347656 0.640625 -1.359375 C 0.648438 -1.390625 0.660156 -1.421875 0.671875 -1.453125 C 0.671875 -1.671875 0.671875 -1.882812 0.671875 -2.09375 C 0.671875 -2.25 0.675781 -2.40625 0.6875 -2.5625 C 0.6875 -3.03125 0.6875 -3.492188 0.6875 -3.953125 C 0.675781 -4.242188 0.664062 -4.539062 0.65625 -4.84375 C 0.644531 -4.96875 0.640625 -5.097656 0.640625 -5.234375 C 0.640625 -5.253906 0.640625 -5.28125 0.640625 -5.3125 C 0.628906 -5.351562 0.625 -5.398438 0.625 -5.453125 C 0.632812 -5.617188 0.71875 -5.6875 0.875 -5.65625 C 0.957031 -5.644531 1.003906 -5.597656 1.015625 -5.515625 C 1.023438 -5.472656 1.03125 -5.429688 1.03125 -5.390625 C 1.050781 -5.285156 1.0625 -5.175781 1.0625 -5.0625 C 1.082031 -4.601562 1.09375 -4.144531 1.09375 -3.6875 C 1.09375 -3.238281 1.085938 -2.789062 1.078125 -2.34375 C 1.078125 -2.144531 1.078125 -1.945312 1.078125 -1.75 C 1.078125 -1.726562 1.078125 -1.710938 1.078125 -1.703125 C 1.078125 -1.628906 1.078125 -1.554688 1.078125 -1.484375 C 1.078125 -1.429688 1.085938 -1.394531 1.109375 -1.375 C 1.140625 -1.351562 1.179688 -1.34375 1.234375 -1.34375 C 2.023438 -1.40625 2.773438 -1.609375 3.484375 -1.953125 C 3.878906 -2.140625 4.234375 -2.382812 4.546875 -2.6875 C 4.785156 -2.925781 4.960938 -3.160156 5.078125 -3.390625 C 5.191406 -3.628906 5.257812 -3.859375 5.28125 -4.078125 C 5.300781 -4.296875 5.289062 -4.5 5.25 -4.6875 C 5.175781 -5.007812 5.003906 -5.285156 4.734375 -5.515625 C 4.472656 -5.753906 4.140625 -5.9375 3.734375 -6.0625 C 3.335938 -6.195312 2.90625 -6.265625 2.4375 -6.265625 C 1.976562 -6.273438 1.507812 -6.21875 1.03125 -6.09375 C 0.664062 -5.988281 0.320312 -5.847656 0 -5.671875 C -0.1875 -5.578125 -0.359375 -5.457031 -0.515625 -5.3125 C -0.597656 -5.238281 -0.660156 -5.160156 -0.703125 -5.078125 C -0.753906 -5.003906 -0.78125 -4.914062 -0.78125 -4.8125 C -0.78125 -4.78125 -0.789062 -4.753906 -0.8125 -4.734375 C -0.84375 -4.710938 -0.875 -4.703125 -0.90625 -4.703125 C -0.945312 -4.691406 -0.992188 -4.691406 -1.046875 -4.703125 C -1.117188 -4.722656 -1.160156 -4.773438 -1.171875 -4.859375 C -1.179688 -4.941406 -1.164062 -5.023438 -1.125 -5.109375 C -1.0625 -5.234375 -0.976562 -5.34375 -0.875 -5.4375 C -0.757812 -5.550781 -0.628906 -5.648438 -0.484375 -5.734375 C -0.347656 -5.828125 -0.207031 -5.910156 -0.0625 -5.984375 C 0.550781 -6.265625 1.195312 -6.441406 1.875 -6.515625 C 2.15625 -6.535156 2.460938 -6.535156 2.796875 -6.515625 C 3.128906 -6.503906 3.460938 -6.457031 3.796875 -6.375 C 4.128906 -6.289062 4.4375 -6.164062 4.71875 -6 C 5.007812 -5.84375 5.25 -5.640625 5.4375 -5.390625 C 5.625 -5.148438 5.738281 -4.851562 5.78125 -4.5 C 5.800781 -4.28125 5.785156 -4.0625 5.734375 -3.84375 C 5.679688 -3.632812 5.601562 -3.429688 5.5 -3.234375 C 5.300781 -2.878906 5.039062 -2.578125 4.71875 -2.328125 C 4.40625 -2.085938 4.078125 -1.882812 3.734375 -1.71875 C 3.390625 -1.550781 3.035156 -1.414062 2.671875 -1.3125 C 2.316406 -1.21875 1.960938 -1.15625 1.609375 -1.125 C 1.578125 -1.125 1.550781 -1.117188 1.53125 -1.109375 C 1.53125 -1.109375 1.523438 -1.109375 1.515625 -1.109375 C 1.503906 -1.109375 1.492188 -1.101562 1.484375 -1.09375 C 1.472656 -1.09375 1.46875 -1.085938 1.46875 -1.078125 C 1.457031 -1.035156 1.472656 -1.007812 1.515625 -1 C 1.546875 -0.988281 1.578125 -0.976562 1.609375 -0.96875 C 1.628906 -0.957031 1.65625 -0.945312 1.6875 -0.9375 C 2.257812 -0.71875 2.816406 -0.46875 3.359375 -0.1875 C 3.910156 0.09375 4.445312 0.390625 4.96875 0.703125 C 5.03125 0.742188 5.085938 0.789062 5.140625 0.84375 C 5.160156 0.84375 5.171875 0.847656 5.171875 0.859375 C 5.171875 0.878906 5.171875 0.898438 5.171875 0.921875 C 5.171875 0.953125 5.160156 0.972656 5.140625 0.984375 C 5.128906 0.992188 5.113281 1.003906 5.09375 1.015625 C 5 1.035156 4.914062 1.019531 4.84375 0.96875 C 4.632812 0.851562 4.421875 0.738281 4.203125 0.625 C 3.972656 0.5 3.738281 0.375 3.5 0.25 C 3.144531 0.0625 2.785156 -0.109375 2.421875 -0.265625 C 2.066406 -0.429688 1.707031 -0.585938 1.34375 -0.734375 C 1.332031 -0.734375 1.320312 -0.738281 1.3125 -0.75 C 1.28125 -0.757812 1.242188 -0.769531 1.203125 -0.78125 C 1.171875 -0.789062 1.140625 -0.789062 1.109375 -0.78125 C 1.085938 -0.769531 1.078125 -0.742188 1.078125 -0.703125 Z M 1.078125 -0.703125 "/></g></g></g><g fill="rgb(100%, 100%, 100%)" fill-opacity="1"><g transform="translate(68.851868, 58.832003)"><g><path d="M 2.765625 -1.3125 C 2.828125 -1.320312 2.863281 -1.316406 2.875 -1.296875 C 2.894531 -1.285156 2.898438 -1.265625 2.890625 -1.234375 C 2.890625 -1.171875 2.863281 -1.117188 2.8125 -1.078125 C 2.769531 -1.035156 2.71875 -1 2.65625 -0.96875 C 2.488281 -0.882812 2.328125 -0.835938 2.171875 -0.828125 C 2.015625 -0.816406 1.847656 -0.832031 1.671875 -0.875 C 1.597656 -0.894531 1.535156 -0.894531 1.484375 -0.875 C 1.429688 -0.851562 1.375 -0.789062 1.3125 -0.6875 C 1.175781 -0.425781 0.960938 -0.273438 0.671875 -0.234375 C 0.441406 -0.210938 0.273438 -0.253906 0.171875 -0.359375 C 0.0664062 -0.472656 0 -0.609375 -0.03125 -0.765625 C -0.0625 -0.941406 -0.0507812 -1.101562 0 -1.25 C 0.0390625 -1.394531 0.113281 -1.535156 0.21875 -1.671875 C 0.3125 -1.753906 0.421875 -1.789062 0.546875 -1.78125 C 0.597656 -1.78125 0.640625 -1.757812 0.671875 -1.71875 C 0.691406 -1.6875 0.695312 -1.660156 0.6875 -1.640625 C 0.675781 -1.617188 0.660156 -1.597656 0.640625 -1.578125 C 0.460938 -1.390625 0.378906 -1.164062 0.390625 -0.90625 C 0.390625 -0.789062 0.421875 -0.679688 0.484375 -0.578125 C 0.546875 -0.492188 0.617188 -0.484375 0.703125 -0.546875 C 0.785156 -0.609375 0.859375 -0.695312 0.921875 -0.8125 C 0.992188 -0.9375 1.035156 -1.054688 1.046875 -1.171875 C 1.054688 -1.296875 1.019531 -1.40625 0.9375 -1.5 C 0.894531 -1.539062 0.859375 -1.566406 0.828125 -1.578125 C 0.804688 -1.585938 0.785156 -1.597656 0.765625 -1.609375 C 0.753906 -1.617188 0.75 -1.632812 0.75 -1.65625 C 0.75 -1.738281 0.78125 -1.796875 0.84375 -1.828125 C 0.914062 -1.867188 1 -1.890625 1.09375 -1.890625 C 1.1875 -1.890625 1.273438 -1.867188 1.359375 -1.828125 C 1.441406 -1.796875 1.492188 -1.742188 1.515625 -1.671875 C 1.546875 -1.578125 1.554688 -1.476562 1.546875 -1.375 C 1.535156 -1.300781 1.566406 -1.238281 1.640625 -1.1875 C 1.796875 -1.082031 1.96875 -1.046875 2.15625 -1.078125 C 2.238281 -1.085938 2.3125 -1.101562 2.375 -1.125 C 2.4375 -1.15625 2.5 -1.1875 2.5625 -1.21875 C 2.632812 -1.257812 2.703125 -1.289062 2.765625 -1.3125 Z M 2.765625 -1.3125 "/></g></g></g><g fill="rgb(100%, 100%, 100%)" fill-opacity="1"><g transform="translate(71.486225, 58.832003)"><g><path d="M 3.140625 -1.265625 C 3.160156 -1.265625 3.175781 -1.253906 3.1875 -1.234375 C 3.195312 -1.222656 3.203125 -1.207031 3.203125 -1.1875 C 3.203125 -1.132812 3.148438 -1.070312 3.046875 -1 C 2.953125 -0.925781 2.84375 -0.859375 2.71875 -0.796875 C 2.601562 -0.742188 2.519531 -0.707031 2.46875 -0.6875 C 2.300781 -0.625 2.132812 -0.601562 1.96875 -0.625 C 1.800781 -0.644531 1.660156 -0.726562 1.546875 -0.875 C 1.460938 -0.976562 1.398438 -1.023438 1.359375 -1.015625 C 1.328125 -1.015625 1.285156 -0.972656 1.234375 -0.890625 C 1.171875 -0.785156 1.070312 -0.671875 0.9375 -0.546875 C 0.78125 -0.429688 0.632812 -0.375 0.5 -0.375 C 0.363281 -0.382812 0.25 -0.4375 0.15625 -0.53125 C 0.0703125 -0.632812 0.015625 -0.757812 -0.015625 -0.90625 C -0.046875 -1.0625 -0.03125 -1.226562 0.03125 -1.40625 C 0.0820312 -1.539062 0.179688 -1.597656 0.328125 -1.578125 C 0.367188 -1.566406 0.398438 -1.546875 0.421875 -1.515625 C 0.453125 -1.492188 0.460938 -1.460938 0.453125 -1.421875 C 0.421875 -1.285156 0.40625 -1.148438 0.40625 -1.015625 C 0.40625 -0.921875 0.425781 -0.835938 0.46875 -0.765625 C 0.5 -0.691406 0.546875 -0.675781 0.609375 -0.71875 C 0.671875 -0.769531 0.734375 -0.835938 0.796875 -0.921875 C 0.867188 -1.003906 0.921875 -1.070312 0.953125 -1.125 C 0.960938 -1.144531 0.972656 -1.160156 0.984375 -1.171875 C 0.992188 -1.191406 1.007812 -1.210938 1.03125 -1.234375 C 1.070312 -1.304688 1.117188 -1.367188 1.171875 -1.421875 C 1.253906 -1.523438 1.363281 -1.570312 1.5 -1.5625 C 1.613281 -1.550781 1.695312 -1.492188 1.75 -1.390625 C 1.84375 -1.140625 1.984375 -1.003906 2.171875 -0.984375 C 2.359375 -0.960938 2.5625 -1.019531 2.78125 -1.15625 C 2.832031 -1.195312 2.882812 -1.226562 2.9375 -1.25 C 3 -1.269531 3.066406 -1.273438 3.140625 -1.265625 Z M 3.140625 -1.265625 "/></g></g></g><g fill="rgb(100%, 100%, 100%)" fill-opacity="1"><g transform="translate(74.33803, 58.832003)"><g><path d="M 2.203125 -1.25 C 2.265625 -1.238281 2.300781 -1.203125 2.3125 -1.140625 C 2.320312 -1.085938 2.289062 -1.035156 2.21875 -0.984375 C 2.15625 -0.921875 2.097656 -0.867188 2.046875 -0.828125 C 1.898438 -0.703125 1.738281 -0.570312 1.5625 -0.4375 C 1.4375 -0.332031 1.316406 -0.210938 1.203125 -0.078125 C 1.117188 0.00390625 1.0625 0.0976562 1.03125 0.203125 C 0.976562 0.347656 0.898438 0.476562 0.796875 0.59375 C 0.742188 0.664062 0.675781 0.707031 0.59375 0.71875 C 0.519531 0.726562 0.445312 0.722656 0.375 0.703125 C 0.332031 0.691406 0.300781 0.671875 0.28125 0.640625 C 0.257812 0.609375 0.253906 0.570312 0.265625 0.53125 C 0.273438 0.46875 0.296875 0.410156 0.328125 0.359375 C 0.378906 0.285156 0.429688 0.21875 0.484375 0.15625 C 0.492188 0.144531 0.5 0.140625 0.5 0.140625 C 0.695312 -0.0976562 0.710938 -0.34375 0.546875 -0.59375 C 0.503906 -0.65625 0.457031 -0.710938 0.40625 -0.765625 C 0.382812 -0.773438 0.367188 -0.789062 0.359375 -0.8125 C 0.328125 -0.851562 0.289062 -0.890625 0.25 -0.921875 C 0.195312 -0.984375 0.140625 -1.050781 0.078125 -1.125 C -0.0859375 -1.351562 -0.078125 -1.578125 0.109375 -1.796875 C 0.273438 -1.984375 0.476562 -2.113281 0.71875 -2.1875 C 0.863281 -2.226562 1.007812 -2.21875 1.15625 -2.15625 C 1.289062 -2.082031 1.351562 -1.96875 1.34375 -1.8125 C 1.320312 -1.707031 1.269531 -1.644531 1.1875 -1.625 C 1.070312 -1.601562 0.988281 -1.640625 0.9375 -1.734375 C 0.925781 -1.765625 0.914062 -1.796875 0.90625 -1.828125 C 0.894531 -1.859375 0.882812 -1.878906 0.875 -1.890625 C 0.863281 -1.910156 0.84375 -1.914062 0.8125 -1.90625 C 0.789062 -1.894531 0.753906 -1.875 0.703125 -1.84375 C 0.617188 -1.789062 0.546875 -1.726562 0.484375 -1.65625 C 0.378906 -1.53125 0.375 -1.398438 0.46875 -1.265625 C 0.5 -1.222656 0.53125 -1.179688 0.5625 -1.140625 C 0.601562 -1.097656 0.644531 -1.054688 0.6875 -1.015625 C 0.757812 -0.941406 0.828125 -0.863281 0.890625 -0.78125 C 0.953125 -0.707031 1.007812 -0.625 1.0625 -0.53125 C 1.101562 -0.539062 1.164062 -0.578125 1.25 -0.640625 C 1.34375 -0.703125 1.441406 -0.773438 1.546875 -0.859375 C 1.660156 -0.941406 1.757812 -1.015625 1.84375 -1.078125 C 1.914062 -1.140625 1.96875 -1.179688 2 -1.203125 C 2.03125 -1.222656 2.0625 -1.238281 2.09375 -1.25 C 2.132812 -1.257812 2.171875 -1.257812 2.203125 -1.25 Z M 2.203125 -1.25 "/></g></g></g><g fill="rgb(100%, 100%, 100%)" fill-opacity="1"><g transform="translate(76.31005, 58.832003)"><g><path d="M 0.53125 -0.984375 C 0.53125 -0.984375 0.523438 -0.984375 0.515625 -0.984375 C 0.515625 -0.984375 0.519531 -0.984375 0.53125 -0.984375 Z M 2.28125 -1.234375 C 2.300781 -1.242188 2.332031 -1.253906 2.375 -1.265625 C 2.414062 -1.285156 2.453125 -1.296875 2.484375 -1.296875 C 2.523438 -1.296875 2.550781 -1.285156 2.5625 -1.265625 C 2.570312 -1.234375 2.570312 -1.207031 2.5625 -1.1875 C 2.5625 -1.175781 2.554688 -1.160156 2.546875 -1.140625 C 2.453125 -1.046875 2.304688 -0.945312 2.109375 -0.84375 C 1.921875 -0.738281 1.722656 -0.644531 1.515625 -0.5625 C 1.304688 -0.488281 1.132812 -0.441406 1 -0.421875 C 0.84375 -0.390625 0.679688 -0.378906 0.515625 -0.390625 C 0.316406 -0.421875 0.171875 -0.503906 0.078125 -0.640625 C -0.015625 -0.773438 -0.0507812 -0.929688 -0.03125 -1.109375 C -0.0078125 -1.304688 0.0703125 -1.460938 0.21875 -1.578125 C 0.375 -1.691406 0.546875 -1.734375 0.734375 -1.703125 C 0.847656 -1.679688 0.957031 -1.640625 1.0625 -1.578125 C 1.164062 -1.492188 1.207031 -1.394531 1.1875 -1.28125 C 1.175781 -1.175781 1.113281 -1.09375 1 -1.03125 C 0.9375 -1 0.867188 -0.976562 0.796875 -0.96875 C 0.722656 -0.96875 0.632812 -0.972656 0.53125 -0.984375 C 0.53125 -0.984375 0.523438 -0.984375 0.515625 -0.984375 C 0.515625 -0.984375 0.507812 -0.984375 0.5 -0.984375 C 0.488281 -0.984375 0.476562 -0.984375 0.46875 -0.984375 C 0.4375 -0.984375 0.414062 -0.972656 0.40625 -0.953125 C 0.394531 -0.929688 0.394531 -0.910156 0.40625 -0.890625 C 0.457031 -0.753906 0.5625 -0.679688 0.71875 -0.671875 C 0.882812 -0.660156 1.070312 -0.691406 1.28125 -0.765625 C 1.488281 -0.835938 1.679688 -0.914062 1.859375 -1 C 2.046875 -1.09375 2.1875 -1.171875 2.28125 -1.234375 Z M 0.53125 -1.390625 C 0.5 -1.367188 0.476562 -1.347656 0.46875 -1.328125 C 0.46875 -1.304688 0.460938 -1.285156 0.453125 -1.265625 C 0.453125 -1.242188 0.457031 -1.234375 0.46875 -1.234375 C 0.476562 -1.234375 0.5 -1.226562 0.53125 -1.21875 C 0.5625 -1.21875 0.597656 -1.21875 0.640625 -1.21875 C 0.679688 -1.21875 0.71875 -1.222656 0.75 -1.234375 C 0.78125 -1.253906 0.789062 -1.285156 0.78125 -1.328125 C 0.757812 -1.378906 0.722656 -1.410156 0.671875 -1.421875 C 0.617188 -1.429688 0.570312 -1.421875 0.53125 -1.390625 Z M 0.53125 -1.390625 "/></g></g></g></svg>